<?xml version="1.0" encoding="utf-8"?>
<!-- Generator: Adobe Illustrator 27.6.0, SVG Export Plug-In . SVG Version: 6.00 Build 0)  -->
<svg version="1.1" id="Layer_1" xmlns="http://www.w3.org/2000/svg" xmlns:xlink="http://www.w3.org/1999/xlink" x="0px" y="0px"
	 viewBox="0 0 2782 2003" style="enable-background:new 0 0 2782 2003;" xml:space="preserve">
<style type="text/css">
	.st0{fill:#00AEEF;}
	.st1{font-family:'Lato','Arial-Black',sans-serif;font-weight:900;}
	.st2{font-size:55px;}
	.st3{fill-rule:evenodd;clip-rule:evenodd;fill:#00AEEF;}
	.st4{fill-rule:evenodd;clip-rule:evenodd;fill:#FFFFFF;}
	.st5{fill:none;stroke:#FFFFFF;stroke-width:13.75;stroke-linecap:round;stroke-linejoin:round;stroke-miterlimit:10;}
	.st6{fill:none;stroke:#004A76;stroke-width:2.2917;stroke-miterlimit:8;}
</style>
<g transform="translate(-1581 -128)">
	<g>
		<text transform="matrix(1 0 0 1 3817.47 886)" class="st0 st1 st2">République</text>
		<text transform="matrix(1 0 0 1 3817.47 942)" class="st0 st1 st2">Tchèque</text>
		<path class="st3" d="M3749.8,1312.3c0-3.1,10.2-8.5,9.5-15c-0.7-6.1-9.5-6.8-19-12.2c-9.5-5.4-18.7-3.1-27.5-7.8
			c-8.8-4.4-26.8-1.4-26.8-4.4c0-3.1-11.6-13.3-14.8-18.7c-2.8-5.4-12.3-2.4-17.9,1.7c-6,3.7-10.9,5.1-16.9,1.4
			c-5.6-3.7-10.9-9.9-15.8-7.8c-5.3,2.4-14.4,1-12.3-6.8c2.1-7.8-9.5-24.8-14.4-27.2c-5.3-2.4-20.4,1.7-23.9-6.1
			c-3.9-7.8-10.2-13.9-7.4-19.4c2.8-5.4-0.7-20.1-4.6-26.2c-3.5-6.1-21.5-5.4-26.8-3.1c-4.9,2.4-16.5-2.4-21.8,0.7
			c-4.9,3.1-7.8,8.5-15.1,8.5c-4.2,0-6.7-0.7-9.1-4.1c-1.8-2.7-3.2-6.8-4.6-14.6c-3.9-17-9.5-26.9-5.3-32.3
			c4.6-5.4,16.9,6.8,23.2,3.7c6.7-3.1,18.3-9.2,16.9-16c-1.4-7.2-12.3-16.3-18.3-18c-5.6-1.4-9.5-15.3-19-19.4
			c-9.2-3.7-7-16-15.1-21.4c-7.8-5.4-2.8-16.3-3.5-24.8c-0.7-8.5,1.4-21.8-2.8-24.1c-4.6-2-22.5-12.9-30.6-9.2
			c-8.1,3.7-13.7,7.1-17.6,0c-3.5-6.8-8.5-10.9-16.6-8.5c-8.1,2.4-13-1.4-17.6-5.4c-0.3-0.7-1.1-1.4-1.4-2.4c-2.8-5.8-2.8-17-7-21.4
			c-5.3-5.4-12.3-15-10.2-20.4c2.1-5.1,2.1-12.9-3.5-19c-2.8-2.7-4.6-6.1-5.6-9.2c-1.4-3.7-1.4-7.5,1.1-9.5
			c4.6-3.7,13.7-3.7,8.8-11.6c-5.3-7.8-6.7-9.2-7.4-18.7c-0.7-9.2-2.8-13.9-2.1-20.1c0.7-6.1,6.7-7.8,10.9-17.7
			c3.9-9.2,14.4-10.9,6.7-22.8c-1.4,1-3.5,2.4-7,3.4c-14.1,4.1-44.7-10.2-62-6.8c-17.6,3.7-52.8,3.7-61.2,12.9
			c-8.1,9.5-28.9,11.9-19.7,20.1c9.2,8.5,0,12.6,6.7,22.4c6.7,9.5,10.2,13.9,19.4,11.6c9.2-2,16.6,3.4,6.7,13.9c0,0.3,0,0.7-0.3,0.7
			c-8.8,10.5-2.5,18.4-2.8,34.7c-0.7,16.3-17.6,13.3-26.8,13.3c-9.1,0-24.3-29.2-28.9-36c-4.9-6.8-20.4,8.2-31.7,15.3
			c-10.9,7.5-5.3,21.1-13,27.9c-7.7,6.8-12.7,18-4.9,33c0.4,0.7,0.7,1.4,1.1,2c6.3,14.3,4.2,28.9-3.5,37.8c-5.3,6.5-2.1,7.1,1.8,9.5
			c1.8,1.4,3.9,2.7,5.3,5.4c4.2,8.2-17.6,9.2-10.9,19.1c7,9.9-15.5,10.2-15.5,0c0-10.2-23.2-5.1-22.2,1.7c0.4,2.4-0.4,5.1-1.8,8.2
			c-3.2,5.1-9.2,9.9-18,9.9c-14.1,0-15.1-15-15.5-21.8c-0.7-6.8-56.7,5.8-71.8,21.8c-14.8,16-49.6,9.5-50.7,18.4
			c-0.7,6.5-6,9.9-9.5,7.8c-1.1-0.3-2.1-1.7-2.8-4.1c-1.4-8.2-6.7-11.2-19.4-11.2c-12.3,0,7.8-13.6,3.2-20.4
			c-4.9-6.5-17.6,12.6-29.2,8.5c-11.6-4.1-26.4,14.3-36.6,22.5c-10.2,8.5-25-1.4-17.2-13.3c7.7-11.9,0-10.9-11.6-6.1
			c-11.6,4.4-25.3-1-23.9-12.6c0.4-2.7-0.7-5.4-2.1-7.8c-4.2-7.5-13.7-13.6-13-18.7c1.1-7.5,10.2-2.7,16.9,3.4
			c6.7,6.1,21.8,7.1,23.2-0.3c1.1-4.8-2.5-26.9-11.6-21.8c-9.1,5.1-11.6,3.1-14.8-2c-3.5-5.1,6.7-13.6,9.1-21.8
			c2.5-8.2,18.3-5.1,20.8-11.9c2.5-6.5-10.6-13.9-15.5-16.3c-4.9-2.7-6.7-19-1-24.1c6-5.4,8.1-24.8,3.5-29.9
			c-4.9-5.4-22.5,0-23.9,13.6c-1.4,13.9-15.5,7.8-19.4,10.9c-3.9,3.1,7.7,9.5,1.4,15.6c-6,6.1-8.4-9.5-18.7-10.2
			c-10.2-1.4-11.3,16.3-16.5,25.2c-5.3,8.8-2.1,27.2,0,39.8c2.1,12.2,15.8,20.1,12.7,30.3c-1.8,4.8,1.4,10.2,4.9,15.3
			c3.9,6.1,8.1,11.9,5.6,16.7c-4.2,8.8,2.5,17,8.8,29.9c6.3,12.9-13.7,5.8-14.1,13.9c-0.4,8.2-18.3-0.7-24.3-3.8
			c-5.6-3.1-25-1-24.6,4.1c0.3,2,0,5.1-1.1,7.5c-1.1,3.7-3.9,6.5-8.1,3.4c-7.4-4.4-18.3-2-33.1,1c-14.4,3.1-18.7,18-13.4,24.5
			c5.3,6.1-14.1,9.2-15.5,1c-1.4-8.5-16.2-2.7-15.1,8.2c1.1,10.9-15.8,15-14.8,28.2c0.7,13.6-15.8,25.8-26.4,32.7
			c-1.4,1-3.2,2-4.9,3.1c-7,4.4-14.4,8.5-21.8,10.2c-2.5,0.3-4.9,0.7-7.4,0.7c-11.6-0.7-21.8,9.2-20.1,29.9
			c2.1,20.4-14.1,22.4-33.8,24.1c-20.1,1.7-13,18-21.5,24.8c-8.1,6.8-37.3-3.7-41.2-15c-3.9-11.2-29.9,0-18.7,13.3
			c10.9,13.6,10.6,32,4.2,37.1c-6.3,5.4-19.7-8.2-28.5-1.4c-8.8,6.8-9.2-6.1-19.7-10.2c-10.9-4.4-15.1,5.1-32,3.4
			c-16.9-1.4-26.8,8.8-20.4,16.7c6.3,7.5-1,15,3.9,21.4c4.9,6.8,27.1,5.8,43.6,15c16.6,9.5,20.4,1.7,28.5,8.5
			c8.1,6.5,10.2,2.4,10.6,15.3c0.7,12.9,9.9,25.2,25.7,29.9c16.2,4.8,3.9,16,8.8,27.2c4.9,11.6-7.4,27.9-4.9,41.8
			c2.5,13.9-7.7,58.8-15.5,62.9c-0.4,0.3-1.1,0.3-1.8,0.3c-9.9,2-38-8.9-56.7-6.5c-20.1,2.7-83.4-3.1-108.1-1
			c-24.6,2-26.1-10.9-39.8-10.9c-13.4,0-7.7,17.7-27.1,18c-19.4,0.7-21.1,13.6-7,25.5c7.7,6.5,7,20.8,5.6,34
			c-0.7,9.9-1.8,19.1,1.1,23.5c6.3,10.9-7.8,68.4-20.4,83.7c-12.7,15.7-0.3,19.7,12.7,30.3c13,10.9,4.2,50.3,4.2,59.5
			c0,9.2,11.6,6.8,25.3,6.8c8.1,0,17.2-4.1,26.1-5.8c6-1,12-1,17.6,1.4c13.4,6.8,21.1,42.8,39.4,40.5c7.8-1,3.9-7.5,7.8-11.6
			c3.9-4.1,11.3-1,19-1c7.8,0,11.6-11.9,29.9-12.2c18.7-0.7,30.3-2,41.9-1.7c11.6,0.7,20.8-3.4,23.6-12.2
			c2.8-8.8,12.7-16.7,25.7-18.7c13-2,11.3-16.3,12-24.5c1.1-8.5,22.9-20.8,24.3-26.9c1.4-6.1-12.7-29.9,0.3-51
			c13-21.4,27.1-22.4,27.1-34c0-10.9,13.7-15,30.3-17.3c16.2-2,21.8-13.6,35.9-20.1c11.6-5.1,15.8-14.3,13.4-28.9
			c-0.4-3.1-1.1-5.8-1.8-9.2c-6-20.1,10.9-32,27.1-34.3c15.8-2.7,50.7,7.5,59.8,13.6c9.1,6.5,21.8,4.8,37.7-13.3
			c8.1-9.2,14.8-12.2,20.8-14.3c5.6-1.7,10.6-2,15.8-4.8c9.8-5.8,5.6-15.6,22.5-20.8c16.9-5.1,39.4,9.9,46.1,20.8
			c6.7,10.9,8.8,11.9,10.2,20.7c1.4,8.5,7.7,26.2,31,42.2c23.2,16,32.4,34,44.3,40.8c12.3,6.8,24.3,5.1,31.7,14.3
			c7,9.5,16.9,14.6,28.5,20.1c11.6,5.8,12,19,23.2,20.7c10.9,1.7,3.9,11.9,10.6,20.8c6.7,8.5,8.8,27.2,1.4,37.4
			c-7,10.5-3.2,27.9,1.4,27.9c4.9,0,15.1-18.4,16.6-28.9c1.4-10.2,11.3-9.5,19-20.4c7.8-10.9-11.6-13.6-15.1-27.5
			c-3.5-13.9,14.4-26.2,31.7-15c16.9,11.6,23.6,19.1,24.6,1.7c0.7-17.7-52.4-40.8-65.1-49c-12.3-8.2-4.2-21.8-23.9-20.8
			c-20.1,1-43.6-25.2-51-55.8c-7-30.3-38-32-45.8-50c-7.7-18,7-20.1,0.4-35c-3.9-8.2,4.6-15.6,14.4-19.7c7.7-3.4,16.5-4.8,20.8-2.7
			c3.9,1.4,5.3,5.8,6,10.2c0.7,7.1,0.4,15,5.6,15c8.8,0,24.6-1,25.3,11.2c0.4,12.6,21.1,39.8,28.9,49c7.7,9.5,25.3,7.1,26.4,15
			c0.7,7.8,13.4,15,27.8,16c4.2,0.3,8.8,2.7,14.1,6.1c5.3,3.7,10.9,8.5,16.5,13.3c8.8,7.5,17.2,15,23.2,18.4c0.7,0.3,1.1,0.7,1.8,1
			c12.7,7.1,17.6,12.2,8.8,21.8c-9.1,9.5-10.9,42.5-0.7,51.3c9.5,8.5,12.3,24.8,21.8,29.6c0.4,0.3,0.7,0.7,1.4,1
			c10.6,3.4,18.7,17,17.2,29.9c-1.4,12.9,15.5,17.3,23.2,8.2c7.7-9.2,29.6,5.1,29.6,11.2c0,6.1-22.2-6.5-34.8,3.1
			c-12.7,9.9,9.5,19.4,6.7,29.6c-2.8,10.2,6,24.8,16.9,24.2c11.3-0.3,23.9,19,30.6,15.6c6.7-3.7-8.1-31-5.6-35.4
			c2.1-4.1,15.8,7.5,22.5-1c6.7-8.2-4.9-14.3-14.8-13.6c-10.2,0.3-0.7-14.6,11.6-6.8c12,7.5,17.6-2,23.6-3.1
			c5.6-1,7.4-23.5-10.6-28.6c-18-5.1-15.5,13.9-27.1,1c-11.6-12.9,10.6-7.5,10.6-18.4c0-10.9-17.9-26.5-26.8-39.5
			c-8.8-12.6,12.3-19,16.9-9.5c4.9,9.2,17.9,7.5,26.4,4.1c8.1-3.7-8.8-20.1,6.3-26.5c14.8-6.1,14.8,4.8,19.7,6.8
			c4.9,2,9.2-12.9,24.6-12.9c8.1,0,15.1,5.8,22.2,11.2c4.2-4.8,7.7-7.8,7.7-11.9c0-5.4,9.5-7.8,9.5-16.3c0-4.1-1.8-9.2-2.8-13.6
			c-1.4-4.8-2.1-8.8-0.4-9.5c3.9-1.7,24.6-4.8,33.4,0c4.6,2.4,9.5,0,13.4-2.7c-1.4-4.4-2.5-7.8-4.6-8.2c-5.3-1-13.7-24.8-6.7-26.2
			c6.7-1.7,15.5-26.5,26.1-29.9c4.2-1.4,6-4.1,6.7-7.5c1.1-5.1-0.4-11.9,0-18.4c0.7-10.9,6.3-27.2,16.5-28.2
			c10.2-1,18.3-1,16.9-19.1c0-0.7,0-1.4,0-1.7c-1.1-16.3,2.1-15.3,15.5-26.2c14.1-11.6,15.5-32.6,28.2-35c12.7-2.7,18-8.8,36.2-5.8
			c18.3,3.1-9.1,15.3,3.5,22.8c12.3,7.1,51-2,53.2,8.2c1.8,10.2-44.7,20.8-43.7,25.8c1.1,5.1,24.6,10.2,33.1,16
			c8.1,5.4-2.5,21.4,1.4,26.9c3.9,5.1,16.5,1,26.8-6.8c9.9-7.8,18.3-5.1,31.3-14.6c13-9.2,40.1-1,43.6-6.5
			c3.2-5.8-7.8-11.6-33.1-9.5c-25,2-26.8-23.1-26.8-28.2c0-5.1,26.4-26.2,41.2-27.9c15.1-1.7,27.1-6.1,41.9-13.3
			c5.6-3.1,15.8-6.1,26.4-8.2c-1.4-7.1-3.5-15.7,0.7-16.3c5.3-1,20.4-18.7,25.7-18.7c4.9,0,26.8,4.8,26.8,0.7c0-3.7,7.4-17,5.6-20.8
			c-1.4-4.1-8.4-9.2-7-13.3c1.4-3.7,11.6-3.7,11.6-8.5C3757.9,1317.7,3749.8,1315.3,3749.8,1312.3z M3123.6,1612.9
			c-1.8-1.4-4.6-3.4-7.7-5.8c5.3,4.1,9.8,7.5,9.8,7.5S3124.6,1613.9,3123.6,1612.9z M2951.1,1216c0-0.7,0-1,0-1.7
			C2951.1,1215,2951.1,1215.3,2951.1,1216z M3349.9,1337.4c-0.3,0-1,0-1.8,0.3C3348.9,1337.4,3349.6,1337.4,3349.9,1337.4z
			 M3347.1,1337.8c-0.4,0.3-0.7,0.3-1.1,0.3C3346.4,1338.1,3346.8,1338.1,3347.1,1337.8z M3345,1338.4c-0.7,0-1.1,0.3-1.8,0.3
			C3343.9,1338.8,3344.3,1338.4,3345,1338.4z M3219.7,1175.9c-1.1,4.4-1.4,12.2-0.7,19.4c0.7,3.7,1.1,7.1,2.1,9.5
			C3218.6,1198.3,3217.9,1182.7,3219.7,1175.9z M3221.8,1206.8c-0.4-0.3-0.4-1-0.7-1.7C3221.4,1205.8,3221.4,1206.5,3221.8,1206.8z
			 M3221.1,1084.1c0.4-0.7,0.4-1.4,0.4-1.7C3221.4,1082.7,3221.4,1083.4,3221.1,1084.1z M3220.7,1079c0,0,0,0,0,0.3
			C3220.7,1079,3220.7,1079,3220.7,1079z M3182.7,1594.9c0-0.7,0-1.4,0-2C3182.7,1593.5,3182.7,1594.2,3182.7,1594.9z
			 M3180.6,1345.6c-0.4-0.3-0.4-0.3-0.7-0.7C3180.3,1345.2,3180.3,1345.2,3180.6,1345.6z M3178.5,1342.5c-0.4,0-0.4-0.3-0.7-0.7
			C3178.1,1342.2,3178.1,1342.5,3178.5,1342.5z M3177.1,1339.8c-0.4-0.3-0.4-0.7-0.4-1C3176.7,1339.1,3176.7,1339.5,3177.1,1339.8z
			 M3184.1,1516c0-0.7,0-1.4,0-2C3184.1,1514.6,3184.1,1515.3,3184.1,1516z M3184.5,1518c0-0.7,0-1-0.4-1.4
			C3184.5,1517,3184.5,1517.3,3184.5,1518z M3185.2,1530.9L3185.2,1530.9L3185.2,1530.9z M3196.4,1358.9L3196.4,1358.9
			L3196.4,1358.9z M3194.7,1362.9c0.4-0.3,0.4-0.3,0.4-0.7C3195.1,1362.6,3195.1,1362.6,3194.7,1362.9z M3196.1,1360.9v-0.3V1360.9z
			 M3190.5,1353.1c-0.7-0.3-1.4-0.7-2.1-1C3189.1,1352.4,3189.8,1352.7,3190.5,1353.1c1.1,0.3,1.4,0.7,2.1,1
			C3191.9,1353.8,3191.5,1353.4,3190.5,1353.1z M3184.1,1349c0.4,0.3,0.7,0.7,1.1,1C3184.8,1349.7,3184.5,1349.3,3184.1,1349z
			 M3186.2,1350.7c0.4,0.3,1.1,0.7,1.4,1C3187.3,1351.4,3186.6,1351,3186.2,1350.7z M3195.1,1356.1c0-0.3,0-0.3,0-0.3
			S3195.1,1355.8,3195.1,1356.1z M3189.8,1288.1c0,0.3,0,0.3,0,0.3S3189.8,1288.5,3189.8,1288.1z M3190.1,1290.5
			c0.7,6.5,3.5,17.7,0.3,20.1c0.4-0.3,0.7-0.7,0.7-1C3192.9,1305.8,3190.8,1296.3,3190.1,1290.5z M3194,1354.8c0,0,0,0-0.4,0
			C3194,1354.8,3194,1354.8,3194,1354.8z M3137.7,1435.7c-0.3,0-0.3,0-0.7,0.3C3137.3,1435.7,3137.3,1435.7,3137.7,1435.7z
			 M3134.1,1438.4c-0.3,0-0.3,0.3-0.3,0.3S3133.8,1438.4,3134.1,1438.4z M3121.5,1447.3c-0.4,0.3-0.4,0.7-0.7,1
			C3121.1,1448,3121.1,1447.6,3121.5,1447.3z M3182.7,1596.6c0,0.3,0,0.7,0,0.7S3182.7,1596.9,3182.7,1596.6z M3182.7,1609.8
			c-0.4,0-0.4-0.3-0.7-1C3182.4,1609.2,3182.4,1609.8,3182.7,1609.8z M3196.1,1357.2L3196.1,1357.2L3196.1,1357.2L3196.1,1357.2z
			 M3311.6,1350.3c0,0.3-0.4,0.3-0.4,0.7C3311.2,1350.7,3311.6,1350.7,3311.6,1350.3z M3315.4,1348c-0.3,0.3-1.1,0.7-1.4,1
			C3314.4,1348.7,3315.1,1348.3,3315.4,1348z M3313.3,1349.3c-0.4,0-0.7,0.3-1.1,0.7C3312.6,1349.7,3313,1349.3,3313.3,1349.3z
			 M3325.6,995c0.4-0.7,1.4-1.4,2.1-2C3327,993.6,3326.3,994.3,3325.6,995z M3221.4,1081v-0.3l0,0
			C3221.4,1081,3221.4,1081,3221.4,1081z M3195.8,1064.7c0.4,0,0.4,0,0.7,0C3196.1,1064.7,3196.1,1064.7,3195.8,1064.7z
			 M3197.2,1064.7c0,0,0.4,0.3,0.7,0.3C3197.5,1065,3197.2,1064.7,3197.2,1064.7z M3198.6,1065c0.3,0.3,0.7,0.3,1.1,0.3
			C3199.3,1065.4,3198.9,1065.4,3198.6,1065z M3200.3,1065.7c0.3,0,0.7,0,1,0.3C3201,1065.7,3200.7,1065.7,3200.3,1065.7z
			 M3202.4,1066.4c0.4,0,0.4,0,0.7,0.3C3202.8,1066.4,3202.8,1066.4,3202.4,1066.4z M3204.6,1067.1c0.3,0.3,0.7,0.3,0.7,0.3
			S3204.9,1067.4,3204.6,1067.1z M3207,1068.1l0.4,0.3L3207,1068.1z M3195.8,1041.9c0-0.7,0-1.4,0-2
			C3195.8,1040.5,3195.8,1041.2,3195.8,1041.9z M3195.4,1043.2c0,0,0-0.3,0.4-0.7C3195.4,1042.9,3195.4,1043.2,3195.4,1043.2z
			 M2993,1425.2c0,0,0,0.3-0.7,0.7c-1.8,1.4-6,5.4-10.2,8.8C2987.7,1430.3,2993,1425.2,2993,1425.2z M3005.7,1327.6c0,0,0,0.3,0,0.7
			C3005.7,1327.9,3005.7,1327.6,3005.7,1327.6z M3005.7,1328.2c0,0,0,0.3,0.4,0.3C3005.7,1328.2,3005.7,1328.2,3005.7,1328.2z
			 M2917,1329.9c0-0.3,0-0.7,0-0.7S2917,1329.6,2917,1329.9z M2950.8,1218.7L2950.8,1218.7L2950.8,1218.7z M2903.6,1339.5
			c-0.4,0.3-0.7,0.7-1.1,1C2902.9,1340.2,2903.2,1339.8,2903.6,1339.5z M2901.8,1340.8c-0.7,0.7-1.4,1-1.8,1.7
			C2900.4,1341.8,2901.1,1341.5,2901.8,1340.8z M2877.9,1421.4c-0.4,0-0.7,0-1.1,0C2877.2,1421.4,2877.5,1421.4,2877.9,1421.4z
			 M2875.1,1421.1c-0.4-0.3-1.1-0.3-1.4-0.3C2874,1420.8,2874.7,1420.8,2875.1,1421.1z M2882.5,1422.1c-0.3,0-0.7,0-0.7,0
			S2882.1,1422.1,2882.5,1422.1z M2892.3,1423.1c-0.7,0-1.1,0-1.8,0C2891.3,1423.1,2891.6,1423.1,2892.3,1423.1z M2899.7,1342.9
			c-0.3,0.3-0.7,1-1.1,1.7C2899,1343.9,2899.4,1343.2,2899.7,1342.9z M2981.7,1435c-0.7,0.3-1.4,1-2.1,1.4
			C2980.3,1436.1,2981,1435.4,2981.7,1435z M2978.2,1437.4c-0.4,0-0.7,0.3-1.1,0.3C2977.5,1437.8,2977.9,1437.4,2978.2,1437.4z
			 M2975.1,1439.1h-0.4H2975.1z M3084.2,1500c0,0.3,0,0.3,0,0.3S3084.2,1500.3,3084.2,1500z M3084.5,1502.7c0,0.3,0,0.7,0,1
			C3084.5,1503.4,3084.5,1503.1,3084.5,1502.7z M3076.8,1554.8c-0.4,0.3-0.4,0.3-0.7,0.7C3076.4,1555.1,3076.4,1555.1,3076.8,1554.8
			z M3079.6,1552.4c0,0,0,0.3-0.4,0.3C3079.6,1552.7,3079.6,1552.4,3079.6,1552.4z M3078.5,1553.4c-0.4,0-0.7,0.3-0.7,0.3
			S3078.2,1553.4,3078.5,1553.4z M3081.7,1551.7c0-0.3,0-0.3,0.4-0.3C3081.7,1551.3,3081.7,1551.3,3081.7,1551.7z M3085.6,1526.2
			c0-4.8,0-9.5,0-13.6C3085.6,1516.7,3085.6,1521.4,3085.6,1526.2z M3082.4,1550.3c0-0.3,0.4-0.3,0.4-0.7
			C3082.8,1550,3082.4,1550,3082.4,1550.3z M3083.1,1548.3c0-0.3,0.3-0.3,0.3-0.7C3083.5,1547.9,3083.1,1547.9,3083.1,1548.3z
			 M3083.8,1545.6c0-0.3,0-0.7,0-0.7S3083.8,1545.2,3083.8,1545.6z M3084.5,1541.5c0,0,0-0.3,0-0.7
			C3084.5,1541.2,3084.5,1541.5,3084.5,1541.5z M3084.9,1538.1c0-0.7,0-1.4,0-1.7C3084.9,1536.7,3084.9,1537.4,3084.9,1538.1z
			 M3085.2,1534c0-0.7,0-1.4,0-2C3085.2,1532.7,3085.2,1533.3,3085.2,1534z M3085.6,1529.9c0-0.7,0-1.4,0-2.4
			C3085.6,1528.6,3085.6,1529.2,3085.6,1529.9z M3084.9,1505.8c0,0.7,0.3,1.7,0.3,2.4C3085.2,1507.5,3084.9,1506.5,3084.9,1505.8z
			 M3085.2,1509.2c0,0.7,0,1.7,0.4,2.7C3085.2,1510.9,3085.2,1509.9,3085.2,1509.2z M3100.7,1597.9c0-0.3-0.3-0.3-0.3-0.3
			S3100.7,1597.6,3100.7,1597.9z M3098.6,1596.9c0,0,0,0-0.4,0C3098.6,1596.9,3098.6,1596.9,3098.6,1596.9z M3115.9,1607.1
			c-0.4,0-0.7-0.3-1.1-0.7C3115.1,1606.8,3115.5,1607.1,3115.9,1607.1z M3113,1605.4l-0.4-0.3L3113,1605.4z M3315.8,1348
			c7-3.4,18.7-7.1,26.8-9.2c-4.9,1.4-10.9,3.1-16.5,5.1C3322.1,1345.2,3318.6,1346.6,3315.8,1348z M3391.8,1443.5v0.3V1443.5z
			 M3391.1,1445.2c0,0.3-0.4,0.3-0.4,0.3S3391.1,1445.6,3391.1,1445.2z M3390.1,1447.6c0,0,0,0-0.4,0
			C3390.1,1447.6,3390.1,1447.6,3390.1,1447.6z M3392.5,1441.8c-0.4,0-0.4,0.3-0.4,0.3S3392.2,1441.8,3392.5,1441.8z M3069,1292.2
			c0.7,0.7,1.8,1.4,2.5,2C3070.8,1293.6,3069.7,1292.9,3069,1292.2z M3060.2,1277.9c-0.4-0.3-0.4-0.3-0.4-0.7
			C3059.9,1277.6,3059.9,1277.6,3060.2,1277.9z M3058.5,1275.5c0,0-0.3-0.3-0.3-0.7C3058.1,1275.2,3058.5,1275.5,3058.5,1275.5z
			 M2950.1,1208.9c-0.4-0.7-0.7-1.4-1.1-2.1C2949.4,1207.5,2949.7,1208.2,2950.1,1208.9z M2951.1,1213.6c0-0.7,0-1,0-1.7
			C2951.1,1212.6,2951.1,1213,2951.1,1213.6z M2950.8,1211.3c0-0.7-0.4-1-0.4-1.7C2950.4,1210.2,2950.8,1210.6,2950.8,1211.3z
			 M2778.3,1401c0,0,0-0.3,0-0.7C2778.3,1400.7,2778.3,1400.7,2778.3,1401z M2780.4,1383L2780.4,1383z M2800.5,1409.2
			c-0.3,0-0.7,0-1.1,0C2799.8,1409.2,2800.1,1409.2,2800.5,1409.2z M2798,1409.5c-0.4,0-0.7,0-0.7,0S2797.6,1409.5,2798,1409.5z
			 M2712.1,1358.5c-0.4,0.7-0.4,1.7-0.4,2.4C2711.8,1360.2,2711.8,1359.2,2712.1,1358.5z M2711.4,1361.6c0,0.7,0,1,0,1.7
			C2711.4,1362.6,2711.4,1362.3,2711.4,1361.6z M2711.1,1364.6v0.3V1364.6z M2662.1,1266.3v0.3V1266.3z M2663.5,1263.6
			c-0.4,0.7-0.7,1-0.7,1.4l0,0C2662.8,1264.7,2663.2,1264,2663.5,1263.6z M2668.8,1256.5c-0.4,0.3-0.4,0.3-0.4,0.7
			C2668.5,1256.8,2668.5,1256.8,2668.8,1256.5z M2667.8,1258.2c-0.4,0.3-0.4,0.3-0.4,0.7C2667.4,1258.5,2667.4,1258.5,2667.8,1258.2
			z M2666.4,1260.2c-0.4,0.3-1.1,1-1.4,1.4C2665.3,1261.2,2666,1260.6,2666.4,1260.2z M2664.6,1262.3c-0.4,0.3-0.4,0.7-0.7,1
			C2664.2,1262.9,2664.2,1262.6,2664.6,1262.3z M2695.2,1474.5c-3.5-2.4-6.3-7.5-3.5-17c0,0.3,0,0.3,0,0.7
			C2688.9,1467,2691.7,1472.4,2695.2,1474.5z M2706.1,1384.4c0.3,0,0.3,0,0.3,0S2706.5,1384.4,2706.1,1384.4z M2707.5,1383.3
			L2707.5,1383.3L2707.5,1383.3z M2664.2,1205.5c-0.4,0.7-0.4,1.7-0.7,2.7C2663.9,1207.2,2663.9,1206.2,2664.2,1205.5z
			 M2662.1,1216.7c-0.7,6.1-1.1,12.9-1.8,16.7c0.4-0.3,0.4-1,0.4-1.4C2661.1,1228.3,2661.4,1222.1,2662.1,1216.7z M2663.2,1209.6
			c0,0.7-0.3,1.4-0.3,2C2662.8,1210.9,2663.2,1210.2,2663.2,1209.6z M2662.5,1213c0,1-0.4,1.7-0.4,2.7
			C2662.1,1214.7,2662.5,1214,2662.5,1213z M2811,1412.6c-2.8-1.7-6-2.7-9.1-3.1c4.6,0.3,9.5,2.7,13.4,5.4
			C2813.8,1414.3,2812.4,1413.3,2811,1412.6z M2870.5,1419.7c0.4,0.3,1.1,0.3,1.8,0.7C2871.6,1420.1,2870.9,1420.1,2870.5,1419.7z
			 M2868.4,1418.7c0.4,0.3,0.7,0.7,1.4,1C2869.1,1419.4,2868.7,1419.1,2868.4,1418.7z M3056,1590.8c0-0.3,0-1,0-1.7
			C3056,1589.8,3056,1590.5,3056,1590.8z M3063.8,1572.4c3.2-5.1,6.7-10.2,9.5-13.9c-1.4,2-3.2,4.1-4.6,6.5
			C3066.9,1567.3,3065.2,1570.1,3063.8,1572.4z M3056.4,1588.4c0-0.7,0-1,0.3-1.7C3056.4,1587.4,3056.4,1587.7,3056.4,1588.4z
			 M3057.1,1585.7c0.4-0.7,0.4-1,0.7-1.7C3057.4,1584.7,3057.4,1585,3057.1,1585.7z M3058.5,1582.6c0-0.7,0.4-1,0.7-1.7
			C3058.8,1581.6,3058.5,1582,3058.5,1582.6z M3059.9,1579.6c0.4-0.7,0.7-1.4,1.1-2C3060.6,1578.2,3060.2,1578.9,3059.9,1579.6z
			 M3061.6,1575.8c0.7-0.7,1.1-1.7,1.8-2.7C3062.7,1574.1,3062.3,1575.2,3061.6,1575.8z M3075,1556.4c-0.4,0.3-0.4,0.7-0.7,1
			C3074.7,1557.1,3074.7,1556.8,3075,1556.4z M3080.6,1616.7c0,0,0,0,0,0.3C3080.6,1616.7,3080.6,1616.7,3080.6,1616.7z
			 M3082.1,1612.6L3082.1,1612.6L3082.1,1612.6z M3097.2,1596.2c-0.3,0-0.3,0-0.7,0C3096.8,1596.2,3096.8,1596.2,3097.2,1596.2z
			 M3151.1,1669.7c0.7,0,1.4,0,2.1,0h0.4C3152.8,1669.7,3151.8,1669.7,3151.1,1669.7z M3154.6,1669.7c0.7,0,1.1-0.3,1.8-0.3
			C3155.6,1669.7,3155.3,1669.7,3154.6,1669.7z M3157.7,1669.4c1.1-0.3,2.1-0.3,3.2-0.7C3159.9,1669,3158.8,1669,3157.7,1669.4z"/>
		<path class="st4" d="M2764,1646.3c14-2.1,12.3-65.2,7-65.6c-5.3-0.7-7,9.6-20.3,18.5C2737,1608.2,2750.7,1648,2764,1646.3z"/>
		<path class="st4" d="M2541.2,1729.3c14.8,10.7,31.8,7.6,29.2-10.4C2567.9,1701,2534,1724.1,2541.2,1729.3z"/>
		<path class="st3" d="M2208.6,1177.1c16.5-16.7,24.9-0.7,40-8.9c15.1-8.2,5.6-68.9,0-81.2c-1.1-2.4-1.1-3.8-0.7-5.5
			c2.1-7.2,17.5-8.2,25.3-16.7c9.8-10.6-4.9-25.6-18.2-39.2c-12.3-12.6-28.1,7.2-41.1,6.8c-1,0-2.4-0.3-3.8-0.7
			c-13.7-5.8-32.3-5.8-33,7.2c-0.4,13,15.1,8.2,15.4,16.4c0.7,8.5-15.4,6.5-26.3,14.7c-11.2,8.2-23.2-5.8-34.7,0.3
			c-11.6,6.5,12.3,13.6,3.9,26.6c-8.8,13,0.3,12.3,14.7,24.9c14.7,12.3-8.4,15.4-8.4,29.3s-17.9,13.3-21.8,22.9
			c-3.9,9.2,15.4,28,32.3,28C2164.1,1202,2192.1,1193.5,2208.6,1177.1z"/>
		<path class="st4" d="M2228.9,894.7c13.1-0.3,28.1-24.3,21.7-31.2C2244.6,857,2219,895,2228.9,894.7z"/>
		<path class="st3" d="M2242.5,910.6c-9.5,8.2,11.2,19.1,23.5,20.8c12.6,1.4-9.5,11.2-11.9,25.5c-2.4,14.6,16.5,8.5,17.5,18.7
			c0.7,10.2-27,11.9-27,21.8c0,9.5,15.8-4.8,23.1-8.8c7-4.1-3.9,24.2,13.3,21.1c17.5-3.1,12.6-28.2,18.9-27.2
			c6.3,1-3.1,13.3,2.5,24.2c5.3,10.9-12.6,27.2-11.6,35c0.7,7.8,35.4,7.8,46.7-4.8c11.2-12.2,16.5,1,8.8,10.5
			c-7.7,9.2-4.6,18,5.3,21.4c9.5,3.7,13,4.8,8.8,12.9c-4.6,8.5-0.7,23.8-3.2,31.6c-2.1,7.5-32.3,6.5-33,1.4
			c-1.1-5.1-13.7-1.4-10.2,5.8c3.2,7.2-10.9,15-9.8,21.8c1.1,6.5,18.9,5.1,19.3,13.3c0.4,8.2-13,18-31.2,23.8
			c-18.6,5.8,3.9,21.1,12.6,14.3c8.4-6.5,6.7,4.8,19.3,4.8c12.3,0,20,10.9,34,5.1c14-5.8,13.7,0,2.8,8.8
			c-10.5,8.8-26.3-0.7-36.1,5.1c-9.5,5.8-48.8,44.9-41.4,54.8c4.2,5.8,10.2-8.2,24.2-14.6c14-6.1,16.1,4.1,24.2,5.4
			c7.7,1,8.1-17.3,14.4-15.7c6.3,1.7,11.9-5.8,23.5-3.7c11.6,2,20-2.4,25.6-7.5c6-5.1,21.4,10.2,26,6.5c4.9-3.4,26.3-7.5,36.8-7.2
			c10.5,0.7,38.2-12.9,45.3-20.1c7.4-7.2-4.2-8.8-14-7.2c-9.5,1.4-7.7-10.5,2.4-20.8c10.2-10.2,26-18,27-33.3
			c1.1-15.7-30.9-26.5-34-18.4c-3.5,8.5-10.9,7.5-16.1-2c-5.3-9.2,4.9-18-0.4-19.1c-5.3-1-12.3-13.9-10.5-19
			c1.4-5.1-8.4-38.1-24.9-42.2c-16.1-4.1-18.6-28.9-21.8-42.2c-2.8-13.6-13.3-6.5-21.4-17.7c-8.4-11.2-22.5-5.8-29.5-5.1
			c-7.4,0.3,0-14.6,11.6-22.8c11.6-8.2,24.9-52.1,24.9-60.9s-50.5-8.2-60.4-3.1c-9.5,5.1-19.3-7.8-10.9-11.2
			c8.1-3.7,25.6-21.8,24.6-28.9c-1.1-7.1,11.9-14,4.9-20.8c-7.4-6.8-8.4,8.8-14.7,13.9c-6.3,5.1-20,3.7-35.1,0.7
			c-15.1-3.4-20.7,19.4-20.4,29.3c0.4,9.9-17.2,15.7-14.4,23.8c2.8,8.2-3.5,14.3-8.4,9.9C2257.6,913.6,2252.3,902.4,2242.5,910.6z"
			/>
		<path class="st4" d="M2416.3,782.9c8-8.5,17.7-41.9,5.2-38.2C2409,748.1,2412.8,787,2416.3,782.9z"/>
		<path class="st4" d="M2876.4,987.1c-3.9-2.4-7,7.1-11.2,8.4c-4.2,1-9.1-19.5-11.2-8.4c-1.8,11.4-11.6-4.4-21.1,9.7
			c-9.8,14.5,5.6,26.9,12.3,31.6c7,4.7-0.4,11.1-9.1,9.1c-8.4-2-3.2,13.4,8.8,15.5c12,2,25.3-22.5,23.9-28.6
			C2866.9,1018.4,2881,990.1,2876.4,987.1z"/>
		<path class="st4" d="M3070.5,891.3c-18.1,0.7-26.5,39.9-22,46.5C3052.4,943,3089,891,3070.5,891.3z"/>
		<path class="st4" d="M3201.1,836.3c3.9-7.3-28.1-4-21,2.7C3185.4,844,3197.2,844,3201.1,836.3z"/>
		<path class="st4" d="M3174,881.7c8.8-0.7,28.4-18,33.7-23.8c5.3-5.8-3.2-11.9-20.7-6.8C3169.8,856.5,3167,882,3174,881.7z"/>
		<path class="st4" d="M2939.5,1783.5c-20.1,4.4-28.2,6.1-39.8,0c-11.6-6.5-30.7,5.4-27.5,13.6c1.8,5.8,9.5,12.9,33.8,19.7
			c24.3,6.8,27.1,24.2,37.4,24.8c10.2,0.3,10.9-9.9,8.5-23.8c-2.1-14,12.3-29.9,13.8-32.3C2967,1782.8,2959.2,1778.7,2939.5,1783.5z
			"/>
		<path class="st4" d="M2752.2,1666.5c-10.7,9.9-19.6-1.7-23.8,6.5c-5.3,9.5,16.7,24.5,12.1,44.5c-4.3,20.4,2.5,45.5,13.9,33.6
			c11.4-11.9,16.7-6.1,23.1-14.9c6-8.8,0.7-41.1,5.3-56.7C2787,1664.1,2763.2,1657,2752.2,1666.5z"/>
		<path class="st5" d="M2192,1128c0-12.7,10.8-23,24-23s24,10.3,24,23s-10.8,23-24,23S2192,1140.7,2192,1128z"/>
		<path class="st5" d="M2403.3,1139.2c0-12.7,10.8-23,24-23s24,10.3,24,23s-10.8,23-24,23S2403.3,1151.9,2403.3,1139.2z"/>
		<path class="st5" d="M2491,1351.5c0-13,10.8-23.5,24-23.5s24,10.5,24,23.5s-10.8,23.5-24,23.5S2491,1364.5,2491,1351.5z"/>
		<path class="st5" d="M2165,1744.5c0-13,10.8-23.5,24-23.5s24,10.5,24,23.5s-10.8,23.5-24,23.5S2165,1757.5,2165,1744.5z"/>
		<path class="st5" d="M2331,1692c0-13.2,10.8-24,24-24s24,10.8,24,24s-10.8,24-24,24S2331,1705.2,2331,1692z"/>
		<text transform="matrix(1 0 0 1 2210.6899 714.1655)" class="st0 st1 st2">Angleterre</text>
		<text transform="matrix(1 0 0 1 2495.9314 623.0632)" class="st0 st1 st2">Pays-Bas</text>
		<text transform="matrix(1 0 0 1 2713.25 808)" class="st0 st1 st2">Allemagne</text>
		<text transform="matrix(1 0 0 1 3823.7 1191)" class="st0 st1 st2">Pologne</text>
		<text transform="matrix(1 0 0 1 3829.5901 1390)" class="st0 st1 st2">Slovaquie</text>
		<text transform="matrix(1 0 0 1 2766.78 1960)" class="st0 st1 st2">Italie</text>
		<text transform="matrix(1 0 0 1 2254 2085)" class="st0 st1 st2">Espagne</text>
		<text transform="matrix(1 0 0 1 1788.11 1755)" class="st0 st1 st2">Portugal</text>
		<text transform="matrix(1 0 0 1 1800.0955 1364.98)" class="st0 st1 st2">France</text>
		<text transform="matrix(1 0 0 1 1750.6989 1239)" class="st0 st1 st2">Belgique</text>
		<text transform="matrix(1 0 0 1 1788.1099 1141)" class="st0 st1 st2">Irlande</text>
		<path class="st6" d="M3001,1170l800.3,7.2"/>
		<path class="st6" d="M2026,1129h155"/>
		<path class="st6" d="M2026,1226h551.2"/>
		<path class="st6" d="M2026,1354.6l453.5-4.6"/>
		<path class="st6" d="M2034,1739h111.3"/>
		<path class="st6" d="M2426.3,734.2v376.3"/>
		<path class="st6" d="M2639.1,641l-3.1,491.1"/>
		<path class="st6" d="M2751,834v412.8"/>
		<path class="st6" d="M2850,891v416.8"/>
		<path class="st6" d="M2357,2009.6l0-286.6"/>
		<path class="st6" d="M2830,1901.9l0-371.9"/>
		<path class="st5" d="M2615,1170c0-12.7,10.8-23,24-23s24,10.3,24,23s-10.8,23-24,23S2615,1182.7,2615,1170z"/>
		<path class="st5" d="M2727,1262.5c0-13,10.8-23.5,24-23.5s24,10.5,24,23.5s-10.8,23.5-24,23.5S2727,1275.5,2727,1262.5z"/>
		<path class="st5" d="M2952,1172.5c0-13,11-23.5,24.5-23.5s24.5,10.5,24.5,23.5s-11,23.5-24.5,23.5S2952,1185.5,2952,1172.5z"/>
		<path class="st5" d="M2949.8,1380.2c-1.8-12.6,7.6-24.5,21.3-26.5c13.3-1.7,26,7.1,28.1,20.1c1.8,12.6-7.6,24.5-21.3,26.5
			C2964.6,1402,2952,1393.2,2949.8,1380.2z"/>
		<path class="st5" d="M2827,1331.5c0-13,10.8-23.5,24-23.5s24,10.5,24,23.5s-10.8,23.5-24,23.5S2827,1344.5,2827,1331.5z"/>
		<path class="st5" d="M2566,1231c0-13.2,10.8-24,24-24s24,10.8,24,24s-10.8,24-24,24S2566,1244.2,2566,1231z"/>
		<path class="st5" d="M2807,1498.5c0-13,10.8-23.5,24-23.5s24,10.5,24,23.5s-10.8,23.5-24,23.5S2807,1511.5,2807,1498.5z"/>
		<path class="st6" d="M2850,891l940.6,6.9"/>
		<path class="st6" d="M3008,1375.4l793.9-0.4"/>
	</g>
</g>
</svg>
