<?xml version="1.0" encoding="utf-8"?>
<!-- Generator: Adobe Illustrator 27.6.0, SVG Export Plug-In . SVG Version: 6.00 Build 0)  -->
<svg version="1.1" id="Layer_1" xmlns="http://www.w3.org/2000/svg" xmlns:xlink="http://www.w3.org/1999/xlink" x="0px" y="0px"
	 viewBox="0 0 1449 1591" style="enable-background:new 0 0 1449 1591;" xml:space="preserve">
<style type="text/css">
	.st0{fill-rule:evenodd;clip-rule:evenodd;fill:#00AEEF;}
	.st1{fill:none;stroke:#FFFFFF;stroke-width:13.75;stroke-linecap:round;stroke-linejoin:round;stroke-miterlimit:10;}
	.st2{fill:#FFFFFF;}
	.st3{font-family:'Lato','Arial-Black',sans-serif;font-weight:900;}
	.st4{font-size:45px;}
</style>
<g transform="translate(-2456 -444)">
	<g>
		<path class="st0" d="M3873.2,1820l3.9-13.2l-1.3-13.8l3.9-21.6l11.2,0.7l1.9,33.5l-5.2,23.6l11.2,13.2l2,71.4l-19.7,24.3l0.6,41.9
			l-3.9,8.5l-7.9,0.6l1.3,14.5l-5.9,5.9v7.9l-5.9,5.3l-1.3,9.2l-11.2-2.6l-2-12.5l-30.9-10.5l-9.9-7.9l3.3-8.5l9.9-5.2v-5.9l-21-5.9
			l9.2-19l2.6-11.2l-23.1,2v-7.2l14.5-15.1v-8.5l-20.4-7.8l-0.7-14.4l10.5-4.6l-7.2-13.1l14.5-13.2l0.6-18.3l26.3-13.8l14.5-1.3
			l11.2-13.1h9.2L3873.2,1820z"/>
		<path class="st0" d="M3756.3,1665.3l9.5-38.8l-2-7.9l-54.8-5.1l-40.6-53.3l24.6-42.4l-5.3-17.4l-27.7-21.6l-11.3-19.4l18.7-31.3
			l30,1.1l6.5-4.8l1.5-17.1l-31.8-55.6l26.8-30.1l-22.4-43.9l-0.9-35.5l-14.9-4.3l-20.2,10.6l-25.2,51.6l-40.7-19.4l24.1-41.8
			l-1.1-21.9l29.4-39.2l10.7-4.1l3-34.6l63.4-45.5v-32.4l51.1,4.9l16.9-15.4l-9.1-18.2l11.6-38.4l20.8-108.1l37.1-32.8l8.1-17.3
			l-87.4-23.5l-57.1-11.4l-26.3-42l-55.2-5.1l-22-15.7h-30.4l-61.4-54.3v-43.7l-29.6,28.6l-49-21.6l6.3-42.9l-46.8-15.9l-6.8-19.1
			l-21.4-12.2l-21.6-35.7l-28.5,10.2l-23.1-25.9l-14-57.9l-49.2,7.3l-31,16.5l-6.7,20.1l-5.7,47.5v11.4l-4.1,8.3l-2.1,8.8l7.7,7.7
			l-2.6,5.2l-7.7-1l-9.8,12.9l-28.9,20.7l-69.7,9.8l-20.1,10.3l-18.1,5.2l-17,32l16,8.3l5.2,6.7l-19.6,2.1l-8.3,11.4l-32,3.6
			l-5.2-7.2l-72.3-22.2l-18.1,3.1l-0.5-17l-8.8-15.5l9.3-11.9v-9.8l-17-7.2l-18.1,8.8l-32-17l-7.7,4.1l6.7,4.6l2.6,5.7l-3.6,10.8
			l2.6,32.5l7.7,6.7l6.7,18.1l0.5,24.3l4.6,12.9l-8.8,33.6l0.5,13.9l10.8,14.5l-43.4-4.6l-4.6-13.4l-12.9,2.6l-3.6,9.3l-6.2-9.3
			l-11.9,6.2l-13.4-10.3l-15.5-1.6l-17,17l-7.7-0.5l-9.8-9.8l-3.1-11.4l-11.9-26.3l-6.7-6.7l-3.6-6.2l-10.3-2.6l-13.4,3.6l-24.3-5.7
			l-1.3,13.9l-8.6,5.5l-23.4-5.2l-6.2,4.1l-5.2-2.4l-3.1-5.2l-12.8-2.4l-16.9,5.2l-6.9-4.5l-20,1.7l-13.8,4.8l-6.2,0.7l-11.7,3.8
			l-7.2,31.7h37.2l-1.4,6.9c0,0,4.1,1.7,6.5,1.7c2.4,0,3.1,5.5,3.1,5.5l-7.6,0.7l-16.9-3.4l-4.8,4.5l4.1,14.1l9.3-5.2l11.4,9.3V817
			l-42-0.7v6.5l17.6,4.8l12.4,18.3l-1.7,20.7l16.5,1l9-9.7l7.9,2.8l10.3,2.1l7.2,5.2l2.1,9.3l14.5,2.1l17.9,8.6l6.2,9l13.4,1.7
			l7.9,8.3l11-0.3l-2.1,3.8l0.3,7.2l3.4,7.2l13.8,3.4c0,0,7.9-6.2,9-6.6c1-0.3,4.1,4.1,4.1,4.1l5.9-2.8l15.9,4.8l-0.3,9l-21.7,2.4
			v5.9l28.6-1.7l14.8,5.9l-4.5,9.7l3.4,6.5l-10.3,3.8l-1.4,2.1l6.2,9.7l-0.3,6.2l7.6,1.4l10.7,6.9l12.1-3.4l0.7,15.5l-3.4,8.3
			l16.9,12.4l-7.9,16.9l-11,6.2l-0.3,16.2l20.7,27.2l6.5,28.6l30.3,16.9l5.2,15.9l12.1,1.7l9.7,6.9l11.7-0.7l1.7,9.7l-10,5.5
			l0.3,7.2l13.8,24.8l-4.8,3.8l-3.1,16.5l-5.9,6.5v13.1l-9-1.7l-4.8,0.3l-1,13.1l44.8,44.8l1.4,16.9l-4.1,41l-2.4-39.6l-22.4-27.6
			l-7.9-10.3l-5.5,4.8l-3.1,12.1l-22.4,112.6l8.3,1.7l3.4,9.3l-13.8,1l-4.5,14.5l-49.6,154.9l-19,20.3l-17.6,1.9l5.9,14.1l24,1
			l16.7,22.8l-2.9,27.2l84.4,48.1l46.7,8l7.7,14.4l67.7,18.8l34.2-27.6l68.6,37.7l45.2,12.4l20.8,34.6l12.1,14.3l23-8.6l39.5,19.2
			l60.9-20.7l10.5,1l-5-6.9l-3.8-20.3l2.4-10l1.7-9.7l-11.4-5.2l2.4-7.9l6.9-8.3l1.7-9.3l6.2-8.6l1-9.7h4.5l14.1-17.6l17.2-10.7
			l12.1,0.7l13.4-11.4l38.6-26.9l11-6.6l12.1,7.9l8.3,13.1l40.3,6.2l4.1,15.2l24.1,1.4l1.4-4.1l-3.1-6.9v-3.8l3.1,6.2l4.1,4.8
			l13.4-5.5l4.8,1l7.6,0.3l0.3-6.9v-6.9l7.2-1l14.1,10.7l-6.2,7.2l-17.9,2.4l2.1,10.7l33.4-0.7l5.9,21l18.6,0.3l28.6,17.9l3.1,6.5
			l3.8,1l5.5-5.9l26.2,6.6l5.5-3.4l8.6-3.1l11.7,1.4l14.1-4.5l16.2-4.8l8.6-1l2.1-13.4l-5.2-6.6l10.3-5.2l3.1-11l19.6,1l14.5-19.7
			l13.1-3.4l4.5-13.1l26.9-9.3l12.8-6.2L3756.3,1665.3z"/>
	</g>
</g>
<path class="st1" d="M514.9,1143.2c0-12.7,10.8-23,24-23s24,10.3,24,23s-10.8,23-24,23S514.9,1155.9,514.9,1143.2z"/>
<path class="st1" d="M347.2,951.8c0-12.7,10.8-23,24-23s24,10.3,24,23s-10.8,23-24,23S347.2,964.5,347.2,951.8z"/>
<path class="st1" d="M1027.2,1230.2c0-12.7,10.8-23,24-23s24,10.3,24,23s-10.8,23-24,23S1027.2,1242.9,1027.2,1230.2z"/>
<path class="st1" d="M258,412c0-12.7,10.8-23,24-23s24,10.3,24,23s-10.8,23-24,23S258,424.7,258,412z"/>
<path class="st1" d="M780.5,357.5c0-12.7,10.8-23,24-23s24,10.3,24,23s-10.8,23-24,23S780.5,370.2,780.5,357.5z"/>
<path class="st1" d="M1276.4,458c0-12.7,10.8-23,24-23s24,10.3,24,23s-10.8,23-24,23S1276.4,470.7,1276.4,458z"/>
<path class="st1" d="M969.9,894.6c0-12.7,10.8-23,24-23s24,10.3,24,23s-10.8,23-24,23S969.9,907.3,969.9,894.6z"/>
<text transform="matrix(1 0 0 1 306.0053 1155.8381)" class="st2 st3 st4">Toulouse</text>
<text transform="matrix(1 0 0 1 415.4255 968.2766)" class="st2 st3 st4">Bordeaux</text>
<text transform="matrix(1 0 0 1 326.6237 423.1025)" class="st2 st3 st4">Rennes</text>
<text transform="matrix(1 0 0 1 748.346 435.0278)" class="st2 st3 st4">Paris</text>
<text transform="matrix(1 0 0 1 1027.2212 481.0277)" class="st2 st3 st4">Strasbourg</text>
<text transform="matrix(1 0 0 1 948.7351 843.2436)" class="st2 st3 st4">Lyon</text>
<text transform="matrix(1 0 0 1 951.9077 1175.775)" class="st2 st3 st4">Marseille</text>
</svg>
