<?xml version="1.0" encoding="utf-8"?>
<!-- Generator: Adobe Illustrator 27.6.0, SVG Export Plug-In . SVG Version: 6.00 Build 0)  -->
<svg version="1.1" id="Layer_1" xmlns="http://www.w3.org/2000/svg" xmlns:xlink="http://www.w3.org/1999/xlink" x="0px" y="0px"
	 viewBox="0 0 1568 1600" style="enable-background:new 0 0 1568 1600;" xml:space="preserve">
<style type="text/css">
	.st0{fill:#00AEEF;}
	.st1{font-family:'Lato','Arial-Black',sans-serif;font-weight:900;}
	.st2{font-size:55px;}
	.st3{fill:none;stroke:#004A76;stroke-width:2.2917;stroke-miterlimit:8;}
	.st4{fill:none;stroke:#FFFFFF;stroke-width:13.75;stroke-linecap:round;stroke-linejoin:round;stroke-miterlimit:10;}
</style>
<g transform="translate(-178 -476)">
	<g>
		<g>
			<g>
				<g>
					<path class="st0" d="M1652.9,821.4c-8.4-3.1-17.3-4.4-26.2-3.8c-4.9-0.3-9.7,2.1-12.7,6.3c-1.2,1.4-2.6,2.7-4.1,3.7
						c-4.7-2.6-10.1-3.1-15.1-1.3l-4.1-4l-1.8,1c-6.3,5-13.1,9.3-20.1,12.8c-2.9,1-5.6,2.7-7.7,5.2c-0.9,1.6-2.8,2.2-4.4,1.3
						c4.5-6.7,10.2-12.3,16.6-16.6c3.3-2.3,5.1-6.4,4.7-10.6c-0.1-1.6-1.1-3-2.4-3.5c-3.8,0-7.6,0-11.3,1c-1.6,0.2-2.9,1.4-3.3,3
						c-0.3,1-0.6,1.9-1,2.8l-23,6.3c-1,0.2-2,0.2-3,0c0,0,0-1.2-1.4-2.2l5-2.3l7.4-2.2c2.3,0,3.6-2.3,3.2-3.8
						c-0.5-1.5-2.4-1.8-3.9-1.8c-7.2,0-15.1,0-21.9,0c-6.8,0-15.1,1.8-21.5,2.8c-5.3,0.5-10.4,2.1-15.1,4.7c-2.4,1.3-3.5,0-4.2-4
						l21.8-6.5h2.1c2,0,4.1,0,6,0c9.1-1,18.2-1,27.2,0c3.2,0.4,6.5,0.4,9.7,0c4.7-1.3,9.4-2.1,14.2-2.3c4.6-0.6,8.9-3.2,11.8-7.2
						c-6.2-4.2-13.8-2.7-20.4-5.2c-2.7-0.5-5.4-0.5-8,0c0-1.8,1.8-3.5,0-5.5c-1.4-1.2-3.3-1.5-5-0.8c-8.7,2.1-17.7,2.1-26.3,0
						c-1.2-0.2-2.4-0.2-3.6,0c-5.8-0.3-11.7,0.6-17.2,2.5c-5,1.1-10.1,1.4-15.1,0.8c1.3-2,3.4-3.1,5.6-3c3.3,0.1,6.6-0.2,9.8-0.8
						c5.8-0.9,11.6-1.3,17.4-1c7.3,0,15.1,0,21.9,0c1.9-0.4,3.7-1,5.4-2c-1.1-0.8-2.4-1.5-3.6-2c-4.9-1.4-10-1.8-15.1-1.3
						c-5.9,1.7-10.6-3.7-16.3-2.8c-0.8,0.1-1.5,0.1-2.3,0h-9.7c-7.2-2.1-14.7-2.3-21.9-0.5c-0.9,0.3-1.9,0.3-2.9,0
						c-6.1-1.7-11.9,1.5-18,0c0,0-1.5,0-1.8,1.2c-0.7,1.2-2.1,1.7-3.3,1.2c-4.8-2.5-8.9,0.8-14.2,1.7c2.7,5,7.7,2.3,11,4.8
						l-12.2,3.3l1.4,5l-8.6-5v-2.3c-4.5-0.6-9.1-0.6-13.6,0c-2.5-0.2-4.9-1.1-7.1-2.5c-2.6-1.9-6-1.9-8.6,0
						c-2.6,1.8-5.8,2.2-8.8,1.3c-2.4-0.7-4.9,0.1-6.7,2c0,2,1.2,3.7,3.5,3.7c2.3,0,6.1,0,9.1,0c8.6-0.1,17.1,0.9,25.4,3
						c4.2,1,4.7,1.7,4.2,7.5c-4-3-8.6-4.9-13.5-5.5c-0.9,0.8,0,3-2,3c-3.6-4.3-3.6-4.5-8.2-4.5h-16.8c-0.9,0-2.1,0-2.3,2l8.6,4.5
						c0.8,0.6,1.5,1.4,2.1,2.3c-4.2,1.3-4.4,1.7-5.9,0c-3.5-3.2-7.8-5.2-12.2-6c-3.5-1.2-5.1,0-9.8,1.7c1.5,2.6,3.9,4.4,6.7,5
						c2.9,0.7,5.8,1.8,8.5,3.3c1.9,1.2,4.2,1.5,6.4,0.8c0,1.3,0,2.5,0.8,3.8c0.8,1.3,1.7,2.2,0,4.2c-1.2,0.1-2.3,0.1-3.5,0
						c-3.5-0.3-6.9-1.8-9.5-4.3c-1.2-0.9-2.5-1.5-3.9-1.8c-7.2-1.5-14.1-3.9-20.7-7.2c-4.9-1.5-10-2.1-15.1-1.7
						c2.4,6.5,2.6,6.3,5.9,8.7c3.3,2.3,3.9,1.2,4.5,4.2l-6.2,2.8l-16.2-5c-1.7,0-3.5,0-4.5,2c-0.3,1.1-0.8,2-1.5,2.8l-4.8,4.5h-0.9
						c-1.1-1.7,0-3.2,0-4.7c1.6-4.4-0.4-9.3-4.4-11c-1.5-0.6-3.1-0.8-4.7-0.3l-3.6,0.8c-4.4,1.2-8.8,1.9-13.3,2.2
						c-5.1,0.6-10.1,1.5-15.1,2.7c-1.2,0.4-2.4,1-3.5,1.7c3.6,2.5,7.4,4,7.9,8.7c-2-0.8-4.1-0.8-5.6-3.2c-1-1.2-2.3-2-3.8-2.3
						c-5.7-2-11.9-1-16.9,2.7l3.2,5.8c-3.2,2.2-0.9,5-1.2,7.3c-2,1.9-4.9,2.2-7.3,0.8c-2.4-1.6-5.3-2.1-8-1.5
						c-5.6,2.5-11.9,2.2-16.6,7.2c-1.5,1.8-3.5,3.1-5.7,3.7c-4.3,1.5-8.4,3.6-12.3,6.2c-1.2,0-2.4,1.3-2.3,3.3c1.3,2,3.5,3,5.7,2.8
						c2.2,0.3,4.4,0.7,6.5,1.3c2.3,0,4.2-2,6.5,0l1.4,11.6c-3.5,5.3-9.2,8.4-15.1,8.3c-7.3-0.8-14.6,1-20.7,5.3
						c-0.9,0.6-1.9,0.9-2.9,1c-3.2,0.7-6.3,1.6-9.4,2.8c-3.5,1.8-7.1,0-10.3,2h-0.8c-5.1,1.5-5.6,2-5.9,8.7c4.9,4.3,11.1,6.4,17.4,6
						c0,0,1.8,0,2,0c0.9,3.5,3.6,0,5.1,1.8c1.5,1.8,0.9,3.5,2.4,4c1.5,0.5,5.7-2.3,8.3-1.7c3.2,0.9,6.5,0.9,9.7,0
						c0.9,0,1.8-1.2,2.7-1.2c1.5-0.3,3-0.3,4.5,0c1.5,0.3,2.5,1.9,2.2,3.5c0,0.1,0,0.2-0.1,0.3c-1.6,1.8-3.8,2.7-6.1,2.7
						c-3.5,0-7.1,0-10.6,0c-1.2,0-3.2,0-3.5,1c-0.3,1-3.2,2-5,1.7c-5.1-1.2-10.4-0.6-15.1,1.7c-0.4,0.4-0.7,1-0.9,1.5l4.7,4.2
						l5.4-1.8c0.4,2.3,2.3,3.8,4.4,3.5h7.6c0.9,0,2.1,0,2.4,2c-2.9,1.5-6.7,1-9.1,4c5.1,4.9,11.8,7.5,18.6,7.3V933
						c2.6-1.7,4.4,2.8,6.7,0c1-0.8,2.2-1.1,3.3-0.8c1.2,0,1.8,2.3,2.7,3.5c2.6-0.7,5.2-1.6,7.7-2.7c1.8-0.8,3-1.5,4.8,0
						c1.8,1.5,2.4,0,3.3,0c1.4-1.7,3.6-2.2,5.4-1.3l5.9,1.2c4,0.6,7.9,1.5,11.8,2.7c6.4,2.2,12.6,5.2,18.9,7.7
						c2.3,0.6,3.8,2.9,3.6,5.5c0,4.5,2,6.5,5.3,8c2.8,0.9,5.3,2.9,7.1,5.5c1,1.1,2.3,2,3.6,2.7c0.5,3.5,1.6,6.9,3,10.1
						c1.7,3,0.9,7.2,3.9,9.5c0.8,0.7,1.2,1.7,1.4,2.8c0.4,2.7,1.9,5,4.1,6.3c1.8,1.2,2.3,3.8,1.1,5.7c-0.3,0.5-0.7,0.9-1.1,1.2
						c-0.8,0.7-1.6,1.3-2.6,1.7c1.8,3.7,1.8,3.7,0,5.5c-0.6,0.5-1.3,0.9-2,1.3l2.7,3.2l-2.9,2.2c-1.2,0.7-1.6,2.3-0.9,3.6
						c0.2,0.4,0.5,0.8,0.9,1c2.7,1.6,5.8,2.1,8.8,1.5c0.9,0,2.4-1,2.4-1.7c0-4.2,4.2-4.2,5.6-6.8c2.2,0.6,4,2.4,4.7,4.8
						c1.2-1.3,2.1-1,2.9,0c0.8,1-4.4,2.7-4.1,6.2c0.3,3.5,3.8,0,5.4-1.7l4.8-2.8c1.5,3.2,3.2,6.3,5,9.3c2.6,2.6,3.8,6.4,3.2,10.1
						c-3,0.2-5.9-0.7-8.5-2.3c-5.7-3.4-12.2-5.2-18.8-5c-1.1,0-2.1,1-3.3,1.5c3.6,4.2,3.6,4,6.5,4.7c2.3,0.2,4.5,0.9,6.5,2
						c4.5,3.2,9.8,4.6,15.1,4c1.7,0,3.3,0,4.7,0c2.6,5.7-4.5,8-3,13h0.8c1.2,0,2.7,0,2.7,1.5s-1.1,1.8-2.4,1.8c-1.4,0-3.3,0-3.5,3
						c-0.1,1.2-0.1,2.4,0,3.7c-2.6,1.4-5.6,1.9-8.5,1.3c-3,0-3.3,0-4.5,4.7v1.3c-4.4,1.5-10.9,14.5-8.6,18.3l6.5,2.7
						c0,1.8-3,1.8-2.4,4.2c0.6,2.3-3.3,1-3.2,4.7c4.9,6.6,9.1,13.9,12.4,21.6c-0.9,2.5-1.8,5,1.1,7.3c2.1-3.5,5.3-6,9.1-7
						c1.7-0.6,3.6,0,4.7,1.5c0,1,0,2.5,0,3.7l-2.6-2.2l-5.9,9c-1.7,2.4-1.7,5.8,0,8.2c2,4.2,6.2,5.2,8.5,8.8v6
						c1.7,1.4,3.5,2.7,5.3,3.8c1.8,1,1.4,5,4.8,3.7v5.8h2.4l3.6,3.8c3.9,4.6,9.9,5.9,15.1,3.3c1.1,0,2.9,0,4.4,0v-1.7
						c0,0,0,1.2,0,1.3c1.8,2.7,2.9,5,5.8,6.2c2.9,1.2,2,3.5,2.6,5.3l6.2,2.7c1.1-1.7,2.3-1,3.3,0c2.3,0,4.5-1,4.2-4.7
						c-0.1-0.8-0.1-1.6,0-2.3c1.1-1.5,2.6-2.8,0-4.8c-2.6-2,0-1,0-1.2c2.9-1.7,2.3-5.3,3.8-7.7c-1.1-1.3-1.1-2.2,0-3.2
						c1.1-1,2-1.8,1.8-2.3c-0.1-0.5,1.2-5.2-1.2-7c-2.4-1.8-1.5-3.3,0-5.3c0.5-1.5,2.1-2.3,3.5-1.7c0,0,0.1,0,0.1,0
						c0.8,0.1,1.5-0.2,2.1-0.8c1.1,0,1.1-1.7,0-2.5c-0.1-0.6-0.1-1.2,0-1.8h4.8c-1.2-5.5,5.2-5.2,6.1-9.6v-3.2c-1.4-1.7-3.9,0-4.5-3
						c1.7-0.8,3.3-1.8,4.8-2.8c0.9-0.8,1.1-2.3,0.3-3.3c-0.1-0.1-0.2-0.3-0.3-0.4c0,0-0.8,0-1.2-1c-0.5-1-2.3-1.7-1.8-3.3
						c0.4-1.7,2.3-1.7,3.8-1.8h3.9l0.8-1.2v-1.7c0-4.8,0-5.2,4.7-5.2c3.3,0.5,6.6-0.1,9.5-1.7l4.1-9.1h3c0,4-3.5,6.5-3,10.1
						c0.9,0,1.7,0,1.8,0c3-3.4,7.2-5.4,11.5-5.7c1.2-0.1,2.4-0.7,3.2-1.7c1.7-2,4-3.3,6.5-3.7c1.7-0.5,3.3-1.4,4.5-2.7
						c3.4-2.8,6.2-6.4,8-10.6c2.3-5.3,6.3-9.4,11.2-11.6c0,0,0,0,1.1-1.7l-2.6-7.8l5,4.5c3.3,2.6,7.7,3.3,11.5,1.7
						c3.2-1.2,5.9-3.7,9.5-2.3c0,0,0.9,0,1.5,0l21.2-5.7c3-0.7,5.8-2.2,8.2-4.3c2-2.1,4.2-3.9,6.5-5.5c6.7-4.2,13.5-8,20.3-12.1
						c-5.1-0.3-10.2-1.3-15.1-2.8c-7.3-1.8-14.9-1.8-22.2,0c0,0-1.2,1-1.8,1.3c-3.2,2.2-3.9,2.2-9.1,0l13-4v-1.8h-5.2
						c1.3-1.6,3.4-2.1,5.3-1.3c0-1.5,1.8-1.3,3.5-1.5c1.9-0.2,3.9-0.6,5.7-1.3c1-0.7,1.3-2.1,0.7-3.2c-0.2-0.3-0.4-0.6-0.7-0.8
						c-1-0.8-2.1-1.2-3.3-1.2c-3.6,0-7.3,1.5-10.9,2.3l-3.9,3.8l-4.1,4.3c0-1.7-1.4-2.7-1.2-3.3c0.2-0.7,1.8-3.3,2.3-5.2
						c0.4-1.8,1.8-4.3,4.2-3.2c4.6,1.6,9.5,1.2,13.8-1.2c1.2,0,2-2.3,3.2-4c-1.5-0.8-3-1.4-4.5-2c-2.1,0-4.1,0-6.1,0c-2,0-3,0-3.6-1
						c-2.7-3.3-6.2-5.8-10.1-7.2c0.9,0,1.2-1.2,1.7-1.2c3,0.3,5.8,1.7,8,4c2.1,2.4,5.1,3.6,8.2,3.3c3.4-0.4,6.7,0.8,9.2,3.3
						c0.7,0.7,1.7,1.2,2.7,1.2c3.9,0,5.4,3.5,6.7,6.8c1.5,4.9,5.8,8.1,10.4,7.8c0.9-0.3,1.6-1,2.1-1.8c0-0.8,0-2.3,1.4-2.5
						c1.4-0.2,2.7,5.3,6.7,3.2c-0.3-5.1-1-10.1-2.1-15l-4.7,1.3c0.8-4-4.1-5.3-2.7-9.8c-5.3-3.5-10.9-6.5-16.6-9
						c0-2.2,0-4.3-2.1-5.2c-1.8-0.9-3.9-0.9-5.8,0c-1.6,1.2-3.6,1.2-5.1,0l10.7-4.3c3.2-1.3,4.7-0.8,5.4,3c0.6,3,2.5,5.6,5.2,6.7
						c3.6,1.8,7.4,3.3,11.2,4.8c0,0,0,0,1.2,0l-2-3.2l1.8-1.8l-5.8-5c1.8,0.4,3.7,0.7,5.6,0.8c0.7-0.1,1.4-0.6,1.7-1.3
						c0.2-0.6,0.2-1.2,0-1.8c-4.7-1.9-9.2-4.2-13.6-6.8c-4.2-2.3-9.1-2-13,0.8c-1,0.9-2.1,1.5-3.3,1.7l-10.4,1c0,0-2,1.2-2.1-1
						c4.1,0,7.7-3.3,12.1-2.2c0.5,0.1,1,0.1,1.5,0c3-1.8,6.2-3.5,9.2-5.5c3-2,2.1-2.5,3.3-3c1.2-0.5,2,2.7,3.3,3.7
						c4.1,3.3,9,5.1,14.1,5c0.5,0.2,1,0.2,1.5,0c3.5-2.4,7.6-3.5,11.7-3.3v-5.7l-6.4-4.3c-1.2-0.5-2.5-0.5-3.6,0
						c-1.1,0.8-2.6,0.5-3.3-0.7c-0.1-0.2-0.2-0.4-0.3-0.6c-0.9-1.8,0-3.2,2.1-4c2.7,1.8,5.8,2.6,8.9,2.2c2.6,0,3.3-2,4.2-4
						c3.5,0,7.1,3.8,10.6-1.3c-1-1.1-2.2-2-3.5-2.7l-9.1-1.5c-1.1-2.8,0-5.8-2.7-7.3l1.4-2.3c0-1.5-3-1.2-2.6-3.5c2,0,3.9,0,5.8,1
						c2.2,0.6,4.4,1.3,6.5,2.2c2.6-2.5,1.5-5.3,0-8.3c-1.5-3-5.1-5.3-9.4-5.8c1.8-2,4.8,0,5.3-4c-4.1-1.3-8.5,0-12.2-1.2l-4.4-6.2
						l-2.1,2l-1.2-1.5c0-1.3-1.2-2.5,0-3.8c1.2-1.3,2.4-2.3,3.9-1.2c2.2,1.6,5,1.6,7.1,0c4.2-2.6,9.2-3.1,13.8-1.2
						c2.2,0.8,4.4,1.2,6.7,1.3c1,0,1.9-0.5,2.6-1.3c1.2-1.9,1.2-4.4,0-6.3c-1.1-1.5-2.9-1.8-5.3,0l-1.8,0.8c-2-1.2-4.2-2.3-6.3-3.2
						c-2.5-0.9-4.2-3.4-4.2-6.3l11.9,1.2c-2.1-1.7-2.9-2.7-3.6-2.8c-0.8-0.2-5.9-1.3-8.8-2.3c-2.1-1.1-4.6-0.2-5.7,2.1
						c0,0.1-0.1,0.1-0.1,0.2l-1.7,2.7l-4.1-1.3l3.6-7.8c1.5-2.9,2.7-6,3.6-9.1c1.5-5.8,1.4-5.8,6.7-6.5h2.4c0-1.2,0-2.8,1.5-3.5
						c2.4-1.6,3.5-4.7,2.9-7.7c0-3.5,1.4-7.2,6.8-6.8h3c3.5,0.2,6.7-2.3,7.6-6c-1-0.2-2-0.2-3,0c-2.3,0-4.5,0-6.8,0
						c-4.5-0.8-9,1.3-11.6,5.3c-2,0-3.2-1.5-2.6-3.7c0.6-2.2,1.8-5.2,5.3-4c1.8-3,4.5-2.8,7.4-2.5l15.1,1c3.2,0.2,6.3-1.4,8.2-4.3
						c-1.1-0.8-2.2-1.3-3.5-1.7h-9.1c-2.4-0.2-4.6-1.2-6.5-2.8c2.9-1.3,5.1-2.3,7.6-3.2c1.1-0.3,2.3-0.3,3.5,0
						c6.2,1.5,12.6,1.1,18.6-1.2c1.2-0.2,2.5-0.7,3.5-1.5c0.7-1.4,1.1-2.9,1.4-4.5c7.8-0.6,15.3-3.6,21.6-8.6
						C1656.8,823.7,1655.1,821.9,1652.9,821.4z M1333.6,820.5c0,0-1.4-1.7-2.1-2.5c1,0.2,1.9,0.6,2.9,1c0,0,0,0,0,1.2
						C1334.4,821.4,1333.6,820.7,1333.6,820.5z M1546.9,1001.5c-1.5,1.3-3,2.5-5.3,0c1.6-0.9,3.4-0.9,5,0H1546.9z"/>
					<path class="st0" d="M989.1,822.2c1.9-1.5,4.2-2.2,6.5-2c1,0.2,1.9,0.6,2.7,1.2c0,2.3-3.5,1.7-3.2,4.8l15.1-3.2h2.1
						c0.7-0.1,1.4-0.1,2.1,0c-6.4,0.6-12.4,3.7-16.9,8.7c1.5,0,2.7,1.8,4.1,1.7c10.6,0.3,21.1-1.1,31.3-4.2c1.9-0.5,3.9-0.8,5.9-1
						c0,0-1.8,2-2.9,2.8c-1.1,0.8,0,0.8-0.8,1.3h1.8h5c-1.4,1.3-3.4,1.7-5.1,1c-0.9,3.3-4.1,3.3-6,5.5c-2,2.2-2.7,1.5-2.1,4.7
						c5,0,10.1,1.2,15.1,1.2c3.2,0.2,6.3-1.6,8-4.7h12.6c0,2.8-4.2,1.2-5,4.2c8.3-0.2,16.5-1.9,24.4-5c1.4-0.7,2.6-1.7,3.6-3
						c3.9-4.8,9.3-8,15.1-8.8l2.7-0.8v1.8c-1.1,0-1.8,0-2.9,0c0,2.8-3.5,2.5-5.1,4c-1.7,1.5-3.5,2.2-3.6,5c5.1,0,10.4-1.3,15.1,1.5
						c-2.4,0.7-4.8,1.1-7.3,1.3c-3.2,0-6.4,1-9.7,1.7c0,0,0,0,0,1l3.5,1.5c-6,1.9-12.1,3.1-18.3,3.5c-5.7,1.5-11.9,1.3-18.2,3
						c1.5,2.7,3.9,4.6,6.7,5.5c1.7,0,3.5,1.2,4.1,3.2c0.6,2,3.6,3.7,6.2,4c2.6,0.3,4.2,0,6.2,0c-4.6,3.5-10.9,3.1-15.1-1
						c-4.7-3.7-9.8-6.9-15.1-9.5c-1.4-0.6-2.9-1-4.4-1.2c-4.8,0-9.5,0-15.1,0c-1.2-0.2-2.4-0.2-3.6,0c-0.9,0.7-1.1,2.1-0.4,3
						c0.1,0.2,0.3,0.3,0.4,0.5c0,0,1.8,0,2.7,1.2c0.9,1.2,0,0,0,1c0,1-2.7,0.8-1.8,3.3c1.4,0.8,3,1.3,4.5,1.7c3.3,0.5,6.3,2.3,8.5,5
						c2.4,2.5,4.8,4.8,7.4,7c0,0,0,1,0,1.5h-5.1c0,1,0.9,1.7,1.2,1.7l12.6,2.3c2.3,0.6,4.7,0.2,6.7-1.2l2.9-0.8
						c-0.9,3.5-0.9,3.5-1.8,3.7c-0.9,0.2-4.4,0-6.4,1l2.4,4.5c-7-4-14.7-6.2-22.5-6.3c-7.6-1.3-15.3,2.3-19.7,9.3
						c-0.9,1-0.9,2.6,0,3.7c0.9,0,1.8,1.3,2.7,1.2c0.9-0.2,5.9-1.8,8.3,1.5c1.7-0.4,3.4-0.9,5-1.5c1.5,0,2.3-2.7,4.2-2.8
						c0,4.2-2.4,5.5-4.1,7.8c0.6,2.9,2.6,5.3,5.1,6.3c2.7,0.7,5.5,0.7,8.2,0c1.4,0,2.6,0,3.9,0c1.4,0,0-1.2,0-1.7
						c1.5-3.8,1.7-4,6.5-6.8c-2,4.7-1.4,5.5-5.7,9.3h-4.2c1.4,2,0,1.5,0,2.3c-2.6,0.4-5.3,0.4-7.9,0c-4.1,0-8.3,0-11.2-5.3
						c-2.9-5.3-10.3-6.7-17.7-2.3c1.3,1.6,2.4,3.4,3.3,5.3c1.1,2.5,4.8,0,5.4,4.2c-1.4,0.8-3,2.8-4.2,2.5
						c-5.4,0.2-10.6,1.9-15.1,5.2c-0.2,1.3-0.2,2.6,0,3.8c0.3,1.2,1,2.3,1.8,3.2c1.1,0.8,2.6,0.4,3.3-0.8l2.4-3l2.6,5.5h5.3
						c0.9,0,2-1.2,2.7-0.8c0.8,0.3,4.7,0,7.1,0c2.4,0.5,4.8,1.2,7.1,2.3c1.5,0.2,3,0.2,4.5,0c0,0,0,0,1.1,0v-3c2.3,1,4.9,0.7,7-0.8
						c3.3,2.8,7.3,0,10.9,2.2c3.6,2.2,3.3,0,4.8-3.2c0,0,0-1.2-1.4-1.2h1.4c2.1,2,3.8,4.5,7.1,3.3c1.3-0.2,2.5,0.2,3.5,1.2
						c0.9,1,0.9,2.8,1.5,4.5c5.4-1.7,11.3-1,15.1-5.7c0.5-0.6,1.2-0.9,2-0.8c3.9,1.5,5-2,7-4c-2.3-4.5-2.4-4.7-5-3.5
						c-2.6,1.2-1.8,1.2-2.7,1.5c-0.9,0.3-3.2-1.3-3.5-3.2c-0.3-1.8-1.5-4.8-4.1-3.8c-2.2,0.5-4.5,0.5-6.7,0c-2.5-0.2-5-0.2-7.6,0
						c-1.2-0.1-2.4-0.1-3.6,0c0,0-1.1,0-1.1-0.8c-0.1-0.6-0.1-1.2,0-1.8c3,0,0-3.7,2.4-3.7c7.1,3.6,15.1,4.7,22.8,3
						c2.3-0.3,4.4-1.3,6.2-2.8c0.5-0.6,0.9-1.3,1.4-2l-1.8-7c0.8-0.2,1.7-0.2,2.6,0c4.1,1.5,8.5,1.5,12.6,0c0.9,0,2,0,3,0s0,0,0-1
						c0-1-3.2,0-2.7-3c0.5-3,5.3,0,6.8-2.5l-3.6-3.8h3.3c1.3,0.1,2.5,0.1,3.8,0c0.7-0.3,1.2-0.9,1.4-1.7c0-0.8,0-2.3-1.2-2.7
						c-1.3-0.7-2.8-1.1-4.2-1.2c-1.2,0-2.9,0-3.6,0c-4.6-2.8-10.1-3.4-15.1-1.7c0,0,0,0-1.1-1c2-2.7,5.4,0,7.4-2.2
						c-1.1-2-4.4-1.8-4.2-5.3c1-1,2.2-2,3.3-2.8c0.8,0,2.6,0,2.6,0s2.1,2.2,3.5,1.8c1.8-0.9,3.8-1.3,5.7-1.2
						c6.8,0.8,13.8-0.1,20.3-2.5c-0.1-1.3-0.1-2.7,0-4c5.1,2,10.7,1.6,15.4-1.2c1.2,0,3.3-1,3.3-1.5c0-4.2,3.9-3,5-5.5l-2.6-2.3
						l6.4-1.2c0,0,0-1.3,0-2c4-0.5,7.7-2.5,10.4-5.7c0.7-0.8,1.5-1.4,2.4-1.8l22.4-12.1c2.4-1.2,5.1-1.7,7.9-2.7
						c2.7-1,2.4-0.8,1.5-3.3l-9.5,1.2l-23.4,4.5c0-1.7,2-2,3.3-2.5c4.7-1.8,10-1.2,14.1-5.3c0.9-0.4,1.9-0.4,2.9,0
						c5.6,0,10.7-5,16.6-2.7c0,0,1.1,0,1.5,0c8.8-2.4,17.2-6.2,25-11.3c0,0,0-1,0-1.8c-1.1-1-2.3-1.8-3.6-2.3
						c-2.6-0.7-5.2-1.2-7.9-1.5c-0.9,0.3-1.9,0.3-2.9,0c-1.4-0.7-2.6-1.6-3.6-2.8c-1.1-1.2-2.2-2.5-3.2-3.8
						c-2.7,0.6-5.6,0.3-8.2-0.8c0,0-1.1,0-1.4,0c-4.4,2-9.5,0-13.9,2.7c-2.7,1.8-6.1,2.1-9.1,1c1.5-2.3,4.8-1.3,5.3-4.3
						c-8-1-15.9-2.9-23.6-5.5c-4.2,0-9.2-1.5-12.4,3.5l-4.1-3.3c-4.1,1.3-8.8,0-11.9,3.7l1.2,3.3c-2.3,0-4.6-0.9-6.4-2.7
						c-2.2-1.9-4.9-2.9-7.7-2.8h-14.4h-4.4l11.5,9.1c0,0,0,0,0,1c0,1-1.5,0-2,0c-2.7-1.3-5.4-2.8-7.9-4.7c-2.1-2-4.9-3-7.7-2.7
						c-4,0.5-8.1,0.1-11.9-1.2c-1.9-0.6-4-0.2-5.6,1.2v4.7c-3.8,0-6.4-3.3-9.8-1.8l2.3,4.5c-2.7,1.7-4.2,0-6.2,0
						c-1.1-0.3-2.3-0.3-3.5,0c0,3.5-4.2,1.5-5.3,4.5c0.7,0.6,1.5,1.2,2.3,1.7c2.8,1.2,5.7,2.2,8.6,3c2,0.3,3.7,1.8,4.5,3.8l-17.2-5
						l1.2,4.5c-0.9,0-2,0-2.3,0c-3.9-4.7-9.4-7.4-15.1-7.5c-0.9,0-1.8-1-2.7-1.2c-0.9-0.2-3.6,0-4.2,2c-0.6,2-2.1,2.2-3.6,2.5
						c-1.5,0.3-3,0-3.9,1.8c1.7,2.2,4.2,0.8,6.2,1.8c2,1,1.5,1.8,0,3.7c-3.4-2.4-7.5-3-11.3-1.7c-0.9,0.4-1.9,0.4-2.9,0
						c-4.6-2.6-10.1-2.1-14.2,1.3c-2,1.6-4.5,2.2-7,1.8c-5.7-0.7-11.4,1-16,4.8C985.8,822.5,987.3,823.7,989.1,822.2z M1175.3,829.8
						c-2.3,1.2-4.9,1.7-7.4,1.5C1169.9,829.3,1172.7,828.7,1175.3,829.8z M1163.3,847.8h0.9c0.1,0.4,0.1,0.8,0,1.2l-0.8-1
						C1163.5,848,1163.2,848,1163.3,847.8z M1155.6,791.4h-1.4H1155.6z"/>
					<path class="st0" d="M1155.5,1021.5c-5.4-8-11.8-5.8-18-1.5l-4.4-2.3v-3.8c-1.4,0.6-2.9,1-4.4,1.3c-1.5,0-1.2,3.5-3.3,2.3
						c-1.1-4.2,1.7-5.3,3.9-7c2.3-1.7,0-1,0-2l-6.5-1.5c0-3.3,0-6.5-3.9-7c-4-0.7-7.9-1.8-11.6-3.3c-4.4-1.3-9.1,0-12.4,3.5l1.7,3.3
						c-2.4,0-4.5,0-5.1,3.8c0.2,0.5,0.2,1.1,0,1.7c0,0,0,0-1.4,0v-5.8l-6.5-1.2c-1.6,2.7-3.9,4.8-6.5,6.2c-1.5-0.7-2.2-2.7-1.6-4.4
						c0,0,0-0.1,0-0.1l3.3-8.2c-1.2-2.7-1.7-5.8-3.3-7.3c-1.8-1.5-3.1-3.5-3.8-5.8c-0.5-2.3-2.4-3.8-4.5-3.8
						c-4.8-0.6-9.6,0.1-14.1,1.8l-12.4,5.7l0.8,2.2c-2.3,0-2.4,2.8-4.1,3.8c-1.7,1-2.4,2.8-1.7,5.5c0.5,1.9,2,3.2,3.8,3.3
						c1.7,0,2,1.5,2.1,3c0.2,1.5-5.4,0.8-5.9,4.7c-0.5,3.8,2.7,4.8,5.7,5.3c3,0.5,2.9,2.2,2.1,3.5c-0.6,1.3-2,1.8-3.2,1.2
						c-3.2-1.1-6-3-8.5-5.5c-2.9-2.3-4.4-6.2-3.8-10.1c0.3-1.6-0.2-3.3-1.2-4.5c0-1.2-0.9-2.5-1.5-3.7c1.8-3.2,3.7-6.2,5.7-9.1
						c2.6-2.7,5.3-5.2,8.2-7.5c-5.2-2.2-10.9-2.2-16,0c-4.8,0.7-9.3,2.8-13.2,6c-4.7,3.5-5.4,9.8-8.8,14.3
						c-3.3,4.5-1.4,6.7-2.1,10.1c-0.5,3.3-0.5,6.7,0,10c4,2.1,8.4,3.2,12.9,3.2c3.2,0.1,6.1,1.6,8.3,4.2c-2.3,1.4-4.9,1.8-7.4,1.2
						c-1.7-0.2-3.4-0.2-5.1,0c-1.5,0-3.2,0-3.5,2.8c4.6,7.3,13,10.4,20.7,7.7c0.6,0.1,1.3,0.4,1.8,0.8c2.4,3.4,6.4,4.9,10.1,3.8
						c1.3-0.2,2.5-0.2,3.8,0c4.1,1.2,8.4,1.6,12.7,1.3c1.7-0.3,3.4-0.3,5.1,0c2.8,1.2,6,1.2,8.8,0c1.8-2.4,4.8-3.3,7.6-2.3
						c3,0.4,5.9,1.2,8.8,2.3c2.6,1,5.4,1,8,0c0-4,0-4-5.7-8l4.4-2.8c1.8,1.7,3.2,3.3,4.7,4.7c1.5,1.3,1.8,1.5,2.6,1.3
						c4.4-1,3.9,3.2,4.8,5.2l5.9,2.5c0.8,4,3.9,5,7,6.3c1.1,0.6,2.1,1.3,3,2.2c0.9,0.7,1.1,2.1,0.4,3c-0.1,0.2-0.3,0.3-0.4,0.5
						l-6.4,2.2v2.5c2.3,0.2,4.6-0.6,6.4-2.2c2.1-1.4,4.6-2,7.1-1.8l3.8,6.8l4.8-1.2l1.1,4.8l5.9,2.3c2.4,5.4,4.4,11,6.2,16.6
						c-3.9,1.7-5,6.3-8.3,8.8c-3.3,2.5-7.3,4-8.9,7.3c0.9,4.7,6,4.7,5.6,9.3c-2.3,1-4.7,1.8-7.1,2.5c-5.6,1.8-11.5,1.8-17.1,0
						c-3.3-1.2-6.8-1.7-8.8,3c0,0-1.4,1-2,1.3c-2,0.9-3.1,3.2-2.7,5.5c0,2.5,1.8,3.7,3.9,4.7c5.7,2.6,12.2,1.4,16.9-3l7,1.8
						c0,0,0.9,0,1.4-0.8v-4.2c2.4,1.3,5,2.3,7.6,3.2c1.7,0.2,3.4,1.1,4.5,2.5c3.1,5,7.8,8.5,13.2,9.8c1.1,0,2,1.8,2.7,2.7l-2.1,5
						l7.6,3.5c2.2,1.4,4.6,2.2,7.1,2.3c1.5,0.1,2.9,0.8,3.9,2c3.4,3.8,7.9,6.1,12.7,6.7c4.1,1,8.2,2.2,12.3,3.7h2.6
						c0.4-1.8-0.2-3.8-1.7-4.8c-4.2-4.4-8.8-8.3-13.8-11.5c-3.3-2.3-6.1-5.3-8.3-8.8c4.5-1.5,7.3,3,10.7,2.2c0.8,0,1.8,0,2.6,1.5
						c5.5,4.4,11.7,7.6,18.3,9.3c0.9-1.1,1.6-2.4,2-3.8c0-1.5-0.2-3.1-0.8-4.5l4.4-1c0-2.8-1.2-4.5-2.3-6.2
						c-1.1-1.7-4.1-4.5-4.4-8.3c-0.6-2.8-2.8-4.8-5.4-5c-2.7-0.7-5.2-2.2-7.3-4.2c-1.8-1.7-2.7-4.7-4.4-6.7c-1.7-2-3.8-3.2-5.7-5
						c-0.5-0.6-0.9-1.3-1.2-2c0,0,0-1,0-1.7c0-0.7,4.1,3,6,0l-3.5-5.8c3.6,1.8,5.3-2.3,8.2-2.3c3.5,4.8,8.4,7.9,13.9,8.8
						c0,2.2-1.5,4.3,0,6c1.5,1.7,3.6,4.7,5.9,5.7c2.3,1,4.7,3.2,7.9,1.7v-8.3h5.1c1.6-1.5,3.1-3.2,4.2-5.2c0-1.7,0-4,0-7.7
						c4.7,4.2,8.3-2.5,8.5-2.7c0.2-0.2,0,0,0,0c-2.1-2.8-5.5-4.1-8.8-3.2c-2.2,0.3-4.4,0.3-6.7,0v-4.3h-7.6c0-6.5,0-6.5-5.9-8.3
						c-1-0.1-1.8-0.7-2.4-1.5c-0.6-1.2-2-1.8-3.2-1.3c-2.4,0.7-5,0.1-7-1.5c-3.3-1.8-6.4-3.8-9.4-6.2c-1.5-1-3.1-1.7-4.8-2.2
						l-4.7-1.3c-0.1-1.1-0.1-2.2,0-3.3c0.8-1,2.3-1.7,2.6-2.8c0.3-1.2,0-2.8,0-4.8c4,1.3,8.3,1.3,12.3,0c-1.8-2.3-4.5-3.5-7.3-3.5
						c-2.7,0.4-5.4-0.3-7.7-1.8c2.9-3.8,7.1-3,10.7-4.5c-0.8-3.2-3.1-5.7-6.1-6.5c-2.9,1.7-4.2,5.3-8,5.3l0.9-4.3l-8.5,1.8
						c2.6-4.8,8.6-2.3,11-7.7c-2.9-2.8-6.9-3.8-10.6-2.5c-0.8,0-2.4,0-2.6,0c-1.8-3.3-3.5,0-5,0v-6.7l-5.1,2.7l-6-1.5
						C1151.2,1024.3,1154.5,1025.3,1155.5,1021.5z M1040.8,1023h-4.4c2.4-1.2,3.2-1.8,3.9-1.8c0.8,0,1.1,0,1.5,1.2
						C1042.3,1023.5,1041.1,1023,1040.8,1023z M1075.3,1032.5c2.7-2.7,2.7-2.7,5.6,0H1075.3z M1157,1032.5c1.1-0.2,2.2-0.2,3.3,0
						l-3.8,3.7C1155,1034.1,1156.1,1033,1157,1032.5z M1158,1090.2c2.9,2.9,6.5,5,10.3,6.2c2.1,0.2,3.8,1.9,4.2,4.2
						c-0.8,2.5-2.7,3-4.8,2.8c-3.5-0.4-7,0.5-10,2.7l-3.9-9.1L1158,1090.2z M1147.6,1028c0.4-0.5,0.8-0.9,1.2-1.3
						c0.1,0.6,0.1,1.2,0,1.8L1147.6,1028z"/>
					<path class="st0" d="M892.1,1047.3c0.5-1.8,2.3-2.8,4-2.2c0.4,0.1,0.7,0.3,1,0.6c2.1,1.5,4.4,0,6.4,1.5c2,1.5,2.4,0,2.3-2.3
						c-0.2-2.3,0-3.8-2-4.2c-4.7-1.7-9.4-3.7-13.9-6c-6-1.5-11.4-5.2-15.1-10.6c2-4.5,1.2-9.9-2.1-13.3c-0.7-1.1-1.2-2.4-1.5-3.7
						c-1.4-4.7-2.9-9.3-4.2-14.1c-0.8-0.4-1.5-0.9-2.1-1.5c-3.7-2.9-8-4.5-12.6-4.5c-4.7,0-6.2,1-5.4,5.8c0.2,1.4,0.6,2.7,1.1,4
						c1.4,5,2.7,10,4.2,14.8l-0.9,1.3c-3.2,3-5,2.8-6.4-0.8c-1.3-2.4-2.1-5.1-2.6-7.8c-0.5-3-2.2-5.7-4.7-7.2c-2-1.6-4.2-3-6.5-4.2
						c-1.2,0-2.7-1.3-3.9,0c3.5,3.3,3.5,3.3,3.5,7c-2.4,0-4.9,0.3-7.3,1c-2.2,1.5-4.7,2.1-7.3,1.8l3.2-6.7
						c-3.9-1.3-7.3-2.7-10.7-3.7c-1.6-0.6-3.4-0.6-5,0c-1.4,0-2.3,2.7-3.3,4.2c-2.1,0.7-4.3,1.1-6.5,1.3c0-1,0-1.7,0-2
						c0-0.3,3.8-5.8,1.4-9c-2.4-3.2-5.1-1.7-7.9-0.8l-13.6,4.8c-5.1,2.1-9.9,5.1-14.1,9l1.5,4.2c-2.7,2.3-6.7,3.5-6.7,9l9.1,2v3.5
						l19.1-2.7c-1.7,2.3-4,3.9-6.7,4.5l-9.5,2.3c-2.2,0.1-4.2,1.4-5.3,3.5c2.8,3.9,7.1,6,11.6,5.7c1.5-0.3,3-0.3,4.5,0
						c4.5,0.8,9.1,0.8,13.6,0c3.5-0.5,7-0.5,10.4,0c3.5,0.6,7,1.6,10.3,3c1.2,0,2.9,0,2.7,3c-3.1,2.1-6.8,2.7-10.3,1.8
						c-8.4-1.7-17.1-1.7-25.6,0c-3.2,0-6.4,1.1-9.1,3v2c0,0,0,1.2,0,1.5c4,5.9,10.4,9.2,17.1,8.7h6.8c1.9,0.3,3.9,0.7,5.7,1.3
						c0,1.5,0,2.5,0,3.7c1.1,6.3,3,8,8.6,7.5l11.3-1c7.9,0.5,15.8-1.2,23-5c1.1-0.7,2.4-1,3.6-1c4.1,0.4,8.1-1.9,10-6
						c0-1,2-1.5,3.2-2.5c1.6,3.2,4.7,5.3,8,5.5c1.5,0,2.9,0.8,3.9,2c1,1.6,2.8,2.4,4.5,2.2c1.6-0.2,3.1-0.2,4.7-0.2
						c5.5,1,11.2,0.2,16.3-2.5c0,0,0-0.8,0.9-1.3l-2.1-5.5l-6.2,1.5c0-1.7-0.9-3-1.4-4.2C887,1048.1,891.1,1050.3,892.1,1047.3z
						 M886.2,1048.4h-0.9H886.2z"/>
					<path class="st0" d="M955.5,856.1l-7.4-1.2c-1.7,0-3.5-1.2-5,0c1,5.4,5.8,9,10.7,8h1.7c0,2.5-4.4,1.2-4.5,4.3
						c3,2,5.9,3.7,9.1,0.8c0.7-0.4,1.5-0.4,2.1,0c2.4,2.5,4.4,0,6.8,0c2.8-0.4,5.6-0.4,8.3,0c2,0.1,4,0.4,5.9,1c0,0,0,0,0,0.8h-2.4
						h-3.5l5.3,2.3c-2.9,0.5-5.7,0.7-8.6,0.8c-3.9-0.4-7.8,1-10.7,3.8l6.4,6.2c1.8,0,3.8,0,5.7,0s3.6,1,7.1,2l-7.3,1.8
						c0,1,0,1.7,0.9,1.8c4.2,2.5,9,3.8,13.8,3.7c1.3,0.5,2.6-0.2,3.2-1.5c1.2-2.7,2.9-1,4.5,0c1.7,1,0,0,0.9-0.8v-1.5v-3.3l6.5,5.8
						c2,1.7,3.9,0.8,4.5-2c0.1-1.3,0.1-2.6,0-3.8h4.2c0.9-3.2-3.2-6.5,0-9.1c2.3,1,0,5.2,3.8,5.5c2.9-2.9,6.1-5.4,9.5-7.5
						c4.1-0.7,7.9-2.3,11.3-4.8c-1.4-1.3-2.3-2.7-3.3-3.8c-1.1-1.2-4.7,1.2-6-1.8h-8c0.1-0.6,0.1-1.2,0-1.8c1.2-6.2,0-7-4.8-8.2
						c0,0-0.8,0-1.1-1c-0.3-1,0,0,0,0s0-0.8,0-1.3c0-0.5,0-3.8-2-4c-1.4-0.2-2.7-0.2-4.1,0v4.8c-5.4,1-5.6-3.8-6.8-6.8
						c-0.9-0.1-1.7-0.1-2.6,0c-5.1,0.2-10-2.1-13.3-6.3l-5.9-6.5c-0.6-0.9-1.4-1.6-2.3-2.2c-4.7-2.6-10-3.5-15.1-2.5
						c1.8,1.5,4.8,0,5.4,4c-5,0-9.4,3.3-15.1,2.2c-0.5,0.6-1,1.2-1.4,1.8c-0.2,0.5-0.2,1,0,1.5c1.6,0.8,3.1,1.8,4.5,2.8
						c0,0,1.2,1.5,2.4,3h-11.3c0,0,0,0-1.1,1v3.2h-2.1l-4.4,1c2.8,1.1,5.7,2,8.6,2.7c2.8,0.2,5.5,0.2,8.3,0
						C957.5,852.9,956.9,854.9,955.5,856.1z M956.3,863.9l3.5-1.5c-0.6,2.3-2,2-3.3,1.5H956.3z"/>
					<path class="st0" d="M705.5,1011.3c4.7,1.4,8.6,4.8,11,9.5c2,3.8,3.9,4,7.6,1.8c3.2-2.8,7.1-4.3,11.2-4.2c1.7,0,3.6-1.5,4.7-2
						l3.9-11.5c3.5-0.1,6.7-2.3,8.3-5.7c0.9-1.6,2.3-2.9,3.9-3.5c7.2-4,14.7-7.4,22.4-10.1c1.5,0,3-1.7,6.1-3.2l-13.8-10.1
						c-4.4-3.8-10.4-4.1-15.1-0.8c-0.6,0.2-1.3,0.2-2,0c-5.7-3.2-12.1-3.7-17.7-6.8c-1.2-0.4-2.4-0.4-3.6,0c-7.6,0.8-15.1,2-22.5,3
						c0,0,0,0-1.2,1c-1.4,4.8,3.2,6.2,4.7,9.3c-2.1,5.3-7.7,8.5-6.8,15.1c-3.2,2.2-2.7,7-5.7,9.5c-1.9,1.2-2.8,3.7-2,6
						C700.8,1009.3,703.1,1011.3,705.5,1011.3z"/>
					<path class="st0" d="M978,949.9l3.2,7.5c0.9,2.5,3.4,3.7,5.7,2.8c0.2-0.1,0.4-0.2,0.5-0.3c1-0.2,1.9-0.6,2.7-1.2
						c7,7.3,13.6,3.2,20.1,0l2,5.7h3.3h30.2c3.8,0.4,7.4-1.7,9.2-5.3c1.7,1.8,2.9,4,4.5,4.5c2.6,1,5.4,1.3,8.2,1
						c4.1-0.5,8.2-1.4,12.3-2.5v-4.5c0-1.5,0-2.5,0.9-3.5c0.9-1,4.1-1.5,3.8-4.8c-2.6-2.8-6-4.6-9.7-5c-0.8,0-1.6-0.3-2.3-0.8
						c-4.6-3-10.1-3.7-15.1-1.8c-0.8,0.2-1.5,0.2-2.3,0c-6.5-0.1-13,0.9-19.2,3.2c-0.8,0-1.8,0-2.1,0c-3.2,4.5-6.8,2.2-10.3,0
						c-1.5-0.5-3.2-0.5-4.7,0c-1.7,0.6-3.5,0.9-5.3,0.8c-1.6-0.4-3.1-0.9-4.5-1.7c-2.6,2.7-4.1,2.8-4.7,0c-0.6-2.8-4.4-6.2-8.3-6.7
						h-5l-2.7-4.8h12.4c0-0.8-0.8-1.5-1.2-1.5c-3.3-1.5-7.6-1-9.4-5.7c-1.9-0.5-3.9-0.8-5.9-1c-4.1,0-8,0-11.9,1
						c-1.1,0.4-2,1-2.9,1.8c1.7,4,5.3,6.2,7.6,9.6c2.3,3.5,3.8,5.3,0,11.5C978,948.8,978.2,949.4,978,949.9z"/>
					<path class="st0" d="M776.6,933.8c-1.2,0-2.3,1.5-1.1,3.7l7.4,0.8c-4.1,2.8-8.8,1.7-12.6,4.3c0,0,1.1,1.3,1.4,1.3h8.2
						c0.1,1.4-0.9,2.6-2.1,2.7c-0.1,0-0.1,0-0.2,0h-6.8c-1.8,0-3.5,0.8-3.6,3.8c1.7,0.9,3.6,1.4,5.4,1.5c2.2-0.5,4.6,0.3,6.2,2
						c1,0.9,2.5,0.9,3.5,0c1-0.9,2.5-0.9,3.5,0c3,2.3,5,0,7.1-1.8c2.1-1.8,2.4-2.5,4.1-4.5l1.5,6.7c3.3-1.4,6.8-2,10.3-1.8
						c3.6,0.8,7-1.3,10.6,0c-1.7,2.9-4.9,4.5-8,4c-6,0.3-11.8,2.2-16.9,5.5c0.4,0.7,0.9,1.2,1.5,1.7c4.6,2.9,10.1,3.6,15.1,1.8
						c4.2-1.2,8.2-2.8,12.3-4.3c3.2-4.7,8.8-1.7,12.6-4.7c0.6-0.5,1.3-0.9,2-1.2c0.8,0,1.8,0,2.3,0c3.9,2.7,8.3,0,12.4,1.2
						c5.8,1.6,11.6-2.2,13.2-8.5c0-1.3,1.2-2.3,1.7-3.7c0.6-1.9,0-4-1.4-5.3c-1.9-1.4-4.1-2.1-6.4-2c-2.7,0-2.7,2.7-4.4,3.7
						c-3.6-0.7-7.1-2.1-10.3-4.2c-1.1-0.2-1.8-1.4-1.6-2.5c0-0.2,0.1-0.4,0.2-0.6c0,0,0-2,0-2.3c-2.9-2-2.3-6-3.9-8.5
						c-4.4,0-4.4,0-12.4,8.5l7.6,3.7l-2,5.7l3.2,1.3c1.5,0,2.9,1.5,2.4,3.5c-0.5,2-1.7,1.8-3,1.8l-16-2.2
						c-2.3-6.3-8.3-7.8-12.3-12.1c0-0.8-2.3-0.8-3.5-1h-3.8c-1.8,0.3-3.6-0.4-4.7-2c-3.4-3.8-8.8-4.3-12.7-1.2
						c-0.9,0.8-1.2,2.5-2,3.2C779.3,932.5,777.9,933.2,776.6,933.8z M783.1,944.1h-2.9H783.1z"/>
					<path class="st0" d="M919.7,1016.8c1.7,2.8,5.2,3.6,7.7,1.8c0.3-0.2,0.5-0.4,0.7-0.6c0.8-1,1.5-2.1,2-3.3
						c4.7,0.8,9.3-1.2,12.3-5.3c0.9-2.5,0-5.3,1.4-8c1.4-2.7,0-3.8-2-4.8c-2-1-1.8,0-2.6,0c-1.5-1.9-3.2-3.4-5.1-4.7
						c-2-0.7-4.1-1-6.2-0.8c1.7-3,4.3-5.2,7.4-6.3c0-1.8,0-3.8,1.7-4.3c1.7-0.5,1.2-1.5,1.1-1.8c-0.2-0.3-1.1-2.2-1.8-2.2
						c-2.5-0.2-5-0.2-7.6,0l0,0c-2.3,2-5.3,2.7-8.2,1.8c-3.3-0.9-6.7-1.4-10.1-1.3c-3.5,0-3.9,0-5,5h1.4h-1.4
						c-0.6-0.8-1.6-0.9-2.3-0.3c-0.1,0.1-0.2,0.2-0.2,0.3c0,1.3,0,2,1.2,2.7h1.4c3.8,0,5.6,2.7,7.3,6c-0.4,2.5-2.2,4.4-4.5,4.8
						c-2.4,0.8-5.1,0.1-7-1.8c-1.3-1.4-2.8-2.5-4.4-3.3c-1.7-0.7-3.6,0.2-4.4,2c-0.9,1.2-0.7,3,0.4,4c0.2,0.1,0.3,0.3,0.5,0.3
						c3.6,1.8,5.9,6.5,11,6.3c2.1,0,4.5,2.2,6.5,3.8C914.3,1009.4,917.3,1012.9,919.7,1016.8z"/>
					<path class="st0" d="M1302.2,1347.9c1.8-1.9,3.4-4.1,4.5-6.5h-3.9c-2-3.3,0-6,1.2-8.8c-0.8-0.8-1.7-1.4-2.7-1.8
						c-2-0.4-4.1-0.4-6.1,0c-3.6,1.3-7.6,0.2-10.3-2.7v-5.3l-7,2.7c-0.9-3.3,1.2-4.8,2.4-7c1.2-2.2,1.8-3.3,2.6-5
						c0.8-1.7,2.9-2.5,1.8-4.2c-1.1-1.7,1.4-3,0-4.7c-2.9-0.2-5.7,1.2-7.4,3.8c-3.5,5.2-6.5,10.7-8.9,16.6c-0.9,3-1.4,7-3.3,8.8
						c-2.2,2.1-3.6,5.2-3.6,8.5c0,0-1.2,1.7-2,2.5c-0.9,0.9-1.8,1.8-2.6,2.8c-0.3,0.7-0.3,1.6,0,2.3c0.4,0.7,1.1,1.1,1.8,1.2
						c2.7,0,5.4,0,8.2,0c2.7,0,5.6,0.8,8.3,0.8c2.7,0,5.9-1.5,8.2,0c2.3,1.5,5.1,0,7.6,0c2.4,0,0.8,0,1.1,1v1.8
						c1.8-0.4,3.5-1.1,5-2.2C1298.6,1350.9,1300.3,1349.3,1302.2,1347.9z"/>
					<path class="st0" d="M1072.9,1136.6h-6c1.5-3.6,0.1-7.8-3.2-9.5c-0.4-0.2-0.9-0.4-1.3-0.5c-2.1-0.9-4.2-1.9-6.2-3.2
						c-2-1-3.3-3.2-5.9-3.7c-2.1-0.7-4.1-1.8-5.9-3.2l-3.8,1.7c-0.9-2.5-1.5-4.5-2.3-6.5c-0.9-1.6-2.9-2.1-4.4-1.1
						c-0.1,0-0.1,0.1-0.2,0.1c-1.1,1.1-1.9,2.6-2.3,4.2c-0.9,6.8-1.7,13.6-2.4,21.1c-1.4,2.2-5.6,1.7-6.1,6.3l11.3-1.2l2,8.8
						c2.4-1,4.5-1.2,5.4-2.3c2.9-4,7.7-5.3,9.8-10c2.1-4.7,2.6-3.5,5.3-1.8c1.4,0.6,2.8,1.3,4.1,2.2c1.1,1,1.8,2.7,3,3.3
						c1.2,0.7,6.2,2,9.7,3.2l4.1-3.8C1077.3,1138.2,1075.2,1136.4,1072.9,1136.6z"/>
					<path class="st0" d="M734.5,936.6l4.1-3.7c1.1,1.3,2.1,2.8,3,4.3c1,1.4,2.6,1.9,4.1,1.3c1.6-0.4,2.6-2.1,2.4-3.8
						c0-1.5,0-3.3,1.7-4l1.7,1.7l1.8,1c0.7-0.9,1.4-1.8,2-2.8c0.1-0.7,0.1-1.4,0-2.2c1.4-2.6,3.2-4.9,5.3-6.8c0.6-0.2,1.3-0.2,2,0
						v6.5c4.5,2.5,5.4,2.8,6.5,0c1-2.2,2.9-3.8,5.1-4.2c1.3-0.4,2.5-0.9,3.6-1.7l-1.2-5c0-4,0-4,3.8-7.7c-1.3-2-3.4-3.3-5.6-3.7
						c-0.9,0-3.2,0-3.2,1.2c0,3.2-2.4,3.2-4.4,3.2c-2,0-4.1,0-6,0c-3.2-0.1-6.4,0.4-9.4,1.7c-6,3.3-10.4,9.3-16.8,12.1
						c-2,2.9-5.1,4.7-8.5,4.7c-1.4,0.4-2.7,0.9-3.9,1.5l1.7,7C727.3,935.2,731.2,934.9,734.5,936.6z"/>
					<path class="st0" d="M918.3,926.3c-2.9-2.4-6.9-2.4-9.8,0c0,0,0,1,0,1.8l4.8,1.7v6c-3.2-0.2-6.2-1.9-8.3-4.7
						c-1.5-2.6-4.3-3.8-7-3c-0.1,0.6-0.1,1.2,0,1.8c2.1,2.6,2.7,6.4,1.5,9.6h1.7h-1.5c-1.1,0-2.1-0.8-2.9,0c-1.7,1.1-3,2.8-3.6,4.8
						h14.2l5.9-0.8c0,0,0,0,1.5,1l-3.8,4.3l1.2,6c5.6,0.8,11.3,0.8,16.9,0c2.3-3.5,0-8.7,5.1-9.8c-0.1-0.5-0.1-1,0-1.5
						c0-1-0.9-2.2,0-3c1.2-4.2,0.6-8.8-1.7-12.5c-3.3-2.2-7.5-1.8-10.4,1C920,928.2,919,927,918.3,926.3z"/>
					<path class="st0" d="M878.7,878.2c0,0,1.4,0,2,1.2l4.4,4.5c0,1,0,2.3-0.9,3c-0.6,0.8-1.6,1.2-2.6,1.2h-8.3
						c0.9,1.7,1.2,2.8,1.8,3.3c2.4,1.6,5.3,1.9,8,1c2.3-1.2,4.8-1.6,7.3-1.2c3.8,1.5,7.7,2.4,11.6,2.7c2.1,0.1,3.9,1.4,5,3.3
						c1.2,2.2,2.6,4.3,5.1,4.5c2.5,0.2,4.9,0.2,7.4,0c1.4-0.6,2.1-2.3,1.6-3.9c-0.1-0.4-0.3-0.7-0.5-1c-1.1-1.2-2.4-2-3.5-3.3
						c-0.9-0.9-1.4-2.2-1.4-3.5c0.1-3.5-2.3-6.4-5.4-6.7c-3,0-5.7,0-7.1-3.8c-1.4-3.8-3.5-2.3-5.4-1.7c-2.1,0.6-4.1,1.4-6.1,2.3
						c-1.1-5.5-4.8-7.3-9.4-8.3c-4.5-0.5-9,0-13.3,1.5c0,0-0.9,1.7-1.8,3.2C871.7,875.4,874.4,879.9,878.7,878.2z"/>
					<path class="st0" d="M1120.2,1634.7c-1.7,0-3-2.8-4.7-3.5c-6.5-2.9-12.9-6.3-18.9-10.3c-2.5-1.4-5.1-2.3-7.9-2.8
						c-2.7-1-5-3.8-7.9-4.7c-10-3.2-20.6-2.6-30.2,1.5c-1.4,0.6-2.7,1.5-3.8,2.7c-1.2,1.2-1.2,3.2-0.2,4.5c0.1,0.1,0.1,0.1,0.2,0.2
						c3.4-1.6,6.6-3.5,9.8-5.5c2.4-1.5,5.1-2.2,7.9-1.8c2.7,0,3.2,2,3.5,4.3c3.8,0.4,7.5,1.4,11,2.8c4.8,2.4,9.9,3.8,15.1,4
						c0.9,5.4,5.4,9.2,10.4,8.6l0,0c1.1,0.6,1.5,2.1,1,3.4c0,0,0,0.1-0.1,0.1c-0.8,1.2-1.6,2.3-2.6,3.3c6.7,0,12.1,0,17.7,0
						c3.1,0.2,6.1-0.7,8.6-2.7c-1.3-1.2-2.6-2.4-4.1-3.3C1123.8,1635,1121.9,1635.3,1120.2,1634.7z"/>
					<path class="st0" d="M1175.7,1651.8c-3.1-1-6.1-2.7-8.6-5c-2.3-1.6-4.8-2.7-7.4-3.3c-3.3-0.3-6.5,0-9.7,1c-3,0-6.1-2.7-9.7-1.2
						c1.1,2,2.3,3.5,3.2,5.3c0.8,2.1,1.5,4.2,2.1,6.3c-4.8,4-9.8,0-15.1,0c3.2,3,3.2,3,4.1,3h12.1c2-0.1,4,0.7,5.4,2.2
						c0.8,1,1.4,2.3,3.2,1.8c0.5-0.5,1-1,1.4-1.7c1-2.4,3.5-3.6,5.7-2.7c0.9,0.3,1.9,0.3,2.9,0c3.1-1.2,6.4-1.6,9.7-1
						c0.9,0,2.1,0,2.9,0c0.8,0,1.4-2,1.1-2.5C1178.1,1653,1177,1652.2,1175.7,1651.8z"/>
					<path class="st0" d="M1075.6,981.9c0,0.8,0,1.7,0,3c4.5,2.8,4.5,2.8,5.4,4.7c3,6,4.4,6.8,10,5.2c4.3-1.6,8.9-1.9,13.3-1
						c2.6,0.7,5.4,0.7,8,0c0,0,0,0,0-1c0-1,0-1.2,0-1.5c-3.5-6.5-9.8-10.7-16.6-11.1c-5.7,0.4-11.5-0.1-17.1-1.7
						C1076.5,978.1,1076.5,979.2,1075.6,981.9z"/>
					<path class="st0" d="M951.6,944.8c-3.1,2.3-5.6,5.4-7.4,9c4.6,3.3,9.7,5.5,15.1,6.7c2.8,0.8,5.8,0.3,8.2-1.5c0-1.8,0-3.8,0-5.7
						c-1.5-6.8-7.8-10.9-13.9-9.2C952.9,944.2,952.2,944.5,951.6,944.8z"/>
					<path class="st0" d="M935.8,893.1c1.2,0,2.6,0,2.7,2.3L936,897l3.8,3.5c5-1.7,10.3,0,15.1-4c-0.4-1.2-0.7-2.5-0.9-3.8
						c0-4.2,0-4.5-3.2-4.7c-2.2-0.1-4.4-0.9-6.2-2.3c-4.1-2.6-8.8-3.9-13.6-3.8c0,0-1.2,0.8-1.8,1.3
						C928.7,888.7,930.4,892.4,935.8,893.1z"/>
					<path class="st0" d="M969.4,922c-0.6-0.9-1.4-1.6-2.4-2l-17.1-3.3c-2.5-0.7-5.2,0.4-6.8,2.7c0,4.7,3.9,6.5,6.5,8.5
						c4,2.4,8.6,3.4,13.2,3c2.7-0.1,5.2-1.3,7-3.5C970.5,925.6,970.4,923.6,969.4,922z"/>
					<path class="st0" d="M816.5,909.4c3.9-1.7,9.1,0,11.5-4.8c-0.9-2.8-4.4,0-4.7-3.8c-0.3-3.8,5.4,0,6.8-3.5l0,0
						c-8.7-0.8-17.4,0.4-25.7,3.5c0,0,0,0.8-1.2,1.7l1.4,4.8C808.3,908.4,811.8,911.5,816.5,909.4z"/>
					<path class="st0" d="M1113.1,1071.2c-4.3,1-7.4,5.3-7.3,10.1c-0.1,3.1,2.1,5.8,4.9,5.9c0.3,0,0.6,0,1-0.1
						c1.8,0.1,3.6-0.2,5.3-0.8c5.9-2.3,6.8-4,6.1-9.5c0-1.5,0-2.8,0-4.3C1120,1070.8,1116.5,1070.3,1113.1,1071.2z"/>
					<path class="st0" d="M1301.9,1050.1l1.4,4.3c1.7,0,3.5,0,5.2,0c2.2-0.5,4.3-1.3,6.3-2.3c1.1-0.5,2-1.6,2.4-2.8
						c0-1.5-0.9-2.3-2.1-3c-1.8-0.8-3.6-1.8-5.1-3.2c-2.4-2-5.2-3.4-8.2-3.8c-1.8-1.2-4-1.2-5.8,0c-1.5,1.5,0,3.2,0,4.7
						c0,1.5,0,3-0.9,4.8L1301.9,1050.1z"/>
					<path class="st0" d="M816.2,891.1c0,0,0,0,0.8,0c2.6-0.9,5.4-0.9,8,0c2.7,0.3,5.5,0.3,8.2,0c0,0,1.1-0.8,1.4-1.5s0-1.3,0-1.5
						c-3.1-3.9-7.9-5.4-12.4-3.8c-4.8,2.2-10,3-15.1,4.7l-2.6,1.3v1.7C808.2,890.3,812.3,890,816.2,891.1z"/>
					<path class="st0" d="M873.8,987.7c2.3-4,1.7-6.8-2.4-8.5c-1.1-0.7-2.3-1.1-3.6-1.2l-8.2,1.3c-1.4,0-2.1,1.3-2,2l9.7,11.1
						C870,991.9,872.3,990.2,873.8,987.7z"/>
					<path class="st0" d="M467.3,1223.1c-2.3,0-5.3,0-6.4,2.2c-1.1,2.2-5.4,0-6.7,3.2v1.7c0.9,1.8,1.7,3.7,3.9,4.3
						c2,0.5,4.1,0,5.6-1.5l7.7-5.3C471.5,1223.1,469.2,1222.9,467.3,1223.1z"/>
					<path class="st0" d="M619,1227.6c-0.4-2.4-0.7-4.8-0.8-7.2c-3.9,0-7.7-4.7-11,1.2l6.5,9c1.6,0.9,2.7,2.4,3.3,4.2
						c1,2.5,2.1,4.9,3.3,7.2c1.1-2.5,1.1-5.4,0-7.8C619.7,1232,619.3,1229.8,619,1227.6z"/>
					<path class="st0" d="M1012.1,835.8h-3c-0.9,0-2,0-1.8,2.3c2.9,1.9,6.2,3.1,9.5,3.7c1.5,0.4,3,0.4,4.5,0c3-1.6,5.6-3.8,7.7-6.7
						L1012.1,835.8z"/>
					<path class="st0" d="M966.8,907.4c0.9,0,1.5-1.8,3.2-4.2c-7.2-1-14.4-1-21.6,0c0,0-1.1,1-1.7,1.7s1.1,1.8,1.7,2
						C954.5,908.1,960.7,908.3,966.8,907.4z"/>
					<path class="st0" d="M1053.5,1153.2l-2.4,4c-1.5,2.8,0,4.8,2.4,5c2.4,0.2,1.7,0,2.1,0c0.5,0,5.1-3.3,7.6-5.2
						c2.4-1.8,2-1.7,1.2-3.8C1061.4,1151.6,1057.4,1153.9,1053.5,1153.2z"/>
					<path class="st0" d="M889.3,940.3c0,0,2.4,0,4.1-1l-2.7-7.7c-4.2-1.1-8.7-0.4-12.6,1.8C881.5,937.1,886.4,936.5,889.3,940.3z"
						/>
					<path class="st0" d="M642.9,1261.9c-1.3-7.2-5.1-13.6-10.7-17.6C636.2,1256.7,636.2,1256.7,642.9,1261.9z"/>
					<path class="st0" d="M1307.3,1350.4c-3.6,0.4-6.3,3.8-6.2,7.8c1.5,0,2.9,0,3.6,1.3c0.9,1.5,2.8,1.9,4.2,1l1.2-3.5
						c0.4-1.2,0.8-2.4,1.1-3.7C1309.1,1352.9,1307.3,1352.9,1307.3,1350.4z"/>
					<path class="st0" d="M1216.1,1324.9c8.5,7.8,12.7,9.5,18.5,7.2C1229.2,1327.6,1222.8,1325.1,1216.1,1324.9z"/>
					<path class="st0" d="M644.5,1273.7l-4.1-1h-4.2c-0.5,3.4,0.7,6.9,3.2,9c2,2.2,4.1,1,6.2,0
						C643,1279.5,645.7,1276.5,644.5,1273.7z"/>
					<path class="st0" d="M645.6,1281.7L645.6,1281.7l-3.3,4.8l2.9,1.5c0.4-0.8,0.7-1.7,0.9-2.7c0.1-1.2,0.1-2.4,0-3.7H645.6z"/>
					<path class="st0" d="M875.9,911.5c-3.9-2.3-5.4-7.5-11-8.7c0.5,3.9,2.4,7.4,5.1,9.8C872,914.8,873.1,914.5,875.9,911.5z"/>
					<path class="st0" d="M998.6,907.9c-1.8-1.2-3.9-1.8-5.9-2.8l-3,1c-0.9,0-1.4,3,0,3.7c2.4,2.4,5.8,3.3,8.9,2.2
						c1-0.7,1.3-2.1,0.7-3.2C999.2,908.3,998.9,908.1,998.6,907.9z"/>
					<path class="st0" d="M752.4,943.8c2.1,0,3.6,1.5,5,1.2c3.6-1.6,6.3-5.1,7-9.3C759.5,936.6,755.3,939.5,752.4,943.8z"/>
					<path class="st0" d="M625.5,1238.2c3.3,3.3,7.4,1.8,10.9,2.8l1.5,3.2l-1.4-7.8C632.6,1233.2,629.3,1235.2,625.5,1238.2z"/>
					<path class="st0" d="M922.4,855.6c-2.9-2-6.7-1.5-9.1,1.2l10,5c1.3-1.8,1.1-4.4-0.5-5.9C922.6,855.8,922.5,855.7,922.4,855.6z"
						/>
					<path class="st0" d="M1098,1657.1c3.9,6.2,8.5,4.3,13.3,3.3C1106.8,1656.3,1106.8,1656.3,1098,1657.1z"/>
					<path class="st0" d="M1084.2,1170.2c1.6-1.6,2.6-3.9,2.7-6.3c0-1.5-1.1-2.6-2.4-2.6c-0.2,0-0.5,0-0.7,0.1
						c-1.1,0.5-2,1.5-2.6,2.7C1080.3,1166.7,1081.3,1168.7,1084.2,1170.2z"/>
					<path class="st0" d="M1192.2,1656.8c0,0-1.2,1-1.1,1.5c0.2,0.5,0,1.7,1.2,1.7c2.2,0.3,4.3,0.3,6.5,0c1.1,0,1.8-1.3,2.7-2v-1.8
						L1192.2,1656.8z"/>
					<path class="st0" d="M622.8,1219.4c-0.3,4.3,0.7,8.6,2.7,12.3c0.9-1.7,2.4-3.2,2.3-4.2C627.6,1226.6,626.1,1221.3,622.8,1219.4
						z"/>
					<path class="st0" d="M874.6,951.6c0,1.2,2,2,2.9,2.7h2.7c1.1-0.3,1.8-1.6,1.5-2.8c-0.1-0.5-0.3-0.9-0.6-1.2
						c-0.7-0.7-1.5-1.3-2.4-1.7C876.7,947.6,874,949.8,874.6,951.6z"/>
					<path class="st0" d="M876.5,926.2c0,0,0,1.2,0,1.5c2.2,2.5,5.8,3,8.5,1c-1.6-2.7-4.5-4.2-7.4-4
						C877.2,925.1,876.8,925.6,876.5,926.2z"/>
					<path class="st0" d="M798.8,901c-2-1.3-4.2-2.5-6.4-3.5c-1.2-0.5-2.5,0.2-2.9,1.5c0,0.1-0.1,0.2-0.1,0.4
						C791.6,902.6,795.8,903.4,798.8,901z"/>
					<path class="st0" d="M1220,1366.5l7.4,2.3c0,0,0.9,0,1.4,0l1.7-3.2l-5.1,1C1223.8,1366.5,1222.3,1364.3,1220,1366.5z"/>
					<path class="st0" d="M1117.5,874.1c2.7,1.8,5.9,2.3,8.9,1.5C1123.2,872.1,1123.2,872.1,1117.5,874.1z"/>
					<path class="st0" d="M1136.1,1077.9c-2.6-1.8-5.3-4-9.1-1.2C1129.5,1079.1,1133.1,1079.6,1136.1,1077.9z"/>
					<path class="st0" d="M1067.6,1285.6c2.4,1.8,5.1,2.9,8,3C1072.1,1284,1072.1,1284,1067.6,1285.6z"/>
					<path class="st0" d="M931,972.9c-4.7,0-4.7,0-7.4,2.7h5.1C929.6,975.2,931.5,974.9,931,972.9z"/>
					<path class="st0" d="M902.6,901.4l-6.2-1.3c-1.1,0-1.8,0-1.4,2.3C897.5,903.5,900.4,903.1,902.6,901.4z"/>
					<path class="st0" d="M792.2,921.8h5.6C793.5,919.3,792.5,919.5,792.2,921.8z"/>
					<path class="st0" d="M1089.1,1061.2c3.5,0,4.8-3,6.5-6.5C1090.1,1057.9,1090.1,1057.9,1089.1,1061.2z"/>
					<path class="st0" d="M1096.3,1145.6c0.9,2.3,2.1,3.7,4.4,3c0.4-0.6,0.4-1.4,0-2C1100.1,1144.4,1098.4,1144.4,1096.3,1145.6z"/>
					<path class="st0" d="M995,922.2c-0.9,0,0,3.2,2.1,3.3c2.1,0.2,1.2,0,2.3-1.3c1.1-1.3-1.1-2.2-1.7-2.5
						C996.8,921.3,995.7,921.5,995,922.2z"/>
					<path class="st0" d="M1246.8,1372.2c2.3,0,3.2-1,3.2-3.5h-3.6L1246.8,1372.2z"/>
					<path class="st0" d="M1099.6,1597.4c0.2-0.7,0.2-1.5,0-2.2c0,0,0-1.3-1.8-2.7c-0.4,1-0.7,2.1-0.9,3.2c0.2,0.7,0.6,1.4,1.2,1.8
						C1098.6,1597.8,1099.2,1597.7,1099.6,1597.4z"/>
					<path class="st0" d="M471.5,1216.3c-1.7,0-2,1-2.7,1.8c-0.8,0.8,0,0,0,0s0.9,0,1.4,0c0.5,0,2.7,0,2.4-2
						C472.3,1214.1,471.5,1216.4,471.5,1216.3z"/>
					<path class="st0" d="M1031.1,878.2l2.9-1C1032.2,876.8,1032.2,876.8,1031.1,878.2z"/>
					<path class="st0" d="M1079.2,1047.6c0.4,0.6,0.8,1.2,1.4,1.7c0,0,0,0,1.2,0l-1.2-1.7
						C1080.6,1047.6,1079.8,1047.4,1079.2,1047.6z"/>
					<path class="st0" d="M1105.7,1053.9c0,0,0,1.5,1.1,1.5s1.2,0,1.7-1c0.5-1,0-1.3,0-1.3L1105.7,1053.9z"/>
					<path class="st0" d="M1124.6,1066.6l-1.7-1.3c0,0,0,1,0,1.2c0,0.2,0.9,1,1.4,1.5L1124.6,1066.6z"/>
					<path class="st0" d="M1042.2,1111.1v-1.3h-1.5c-0.1,0.4-0.1,0.9,0,1.3C1040.7,1111.1,1041.9,1111.1,1042.2,1111.1z"/>
					<path class="st0" d="M1049.1,1108.3c0,0,0,0,0-1c-0.2-0.7-0.5-1.4-0.9-2c-0.1,0.7-0.1,1.4,0,2.2
						C1048.2,1107.5,1048.8,1108.1,1049.1,1108.3z"/>
					<path class="st0" d="M1048.5,1105.3l0.2,0.2v-0.2H1048.5z"/>
					<path class="st0" d="M941.4,990.7c0,0,0-1-0.9-1c-0.9,0,0,0-1.2,0l1.4,1.5L941.4,990.7z"/>
					<path class="st0" d="M1266.5,1306.4l8.2-1.8c3.9-1.1,7.4-3.4,10.1-6.7c0.5-1.5,0.5-3.1,0-4.7c-0.5-2.4-0.5-4.9,0-7.3
						c1.1-3.5,0-5.7-3.3-7.5c-2.4-1.8-5.6-1.4-7.6,1l-0.8-2c0-5.2,0-6-4.8-6.2h-3.5c0.2-1.6,1.3-3,2.7-3.5c0.9,0,2.6,0,2.3-2.5
						c-1.8-1.4-3.9-2.1-6-2.2c-1.5,0-2.9-0.6-4.1-1.7c-1.4-1.6-3.4-2.5-5.4-2.5l-7.4-1.7c0.4-3.2-1.1-6.4-3.8-7.8l-9.2-6.8
						c-1.4-5,2.7-6,4.5-9.1c-5.4-1.3-4.4-6.2-5.3-10c-0.9-3.8-5.7-3.2-5.9-7.8c0-1.3-2.6-1.7-2.4-4.3c0.2-2.7-2-3.7-3-5.5
						c-1.1-1.8-3.9-5.7-5.7-8.7l-5.3-7.7c-3,3.4-5,7.8-5.7,12.5c0,2.2-1.2,4.8-3.5,6.2c-4.7,3.9-9.7,7-15.1,9.5l-7-6.8
						c-0.9-0.9-2-1.5-3.2-1.7c-1.7-0.2-3.4-0.2-5.1,0c-0.3-4.5-1-9-2.1-13.3c-1.1-5.6-0.6-11.4,1.4-16.6c-1.4,0-3,1-3.5,0
						c-0.5-1-5.7-2-8.5-3c-2.7-1-7.4-1.2-7.4-6.7c0,0,0-0.8-0.9-1.3c-4.4-4.6-9.5-8.4-15.1-11l-3.5,1.3c-1.8,1-3.8,1.5-5.7,1.5
						c-5.3-0.8-10.3-2.2-15.1-3.3c-1.7-0.4-3.4-0.8-5.1-1c-2.6-0.2-5.1,1.2-6.4,3.7c-1.1,2.3-0.7,5.2,1.1,7l2.4,3.2l-2.6,9.3
						c3.2,3.8,2.9,9.1,5.3,13.5l-9.5,15.6c0,0.8,0,1.5,0,1.8l6.2,4.8c5.1,3.4,8.4,9.1,9.1,15.6c0.2,4.5,1.7,8.9,4.2,12.5
						c-2.9,0.3-5.5,1.9-7.4,4.3c-4.3,6.2-10.2,10.8-16.9,13.1l-4.5,2.3c0.8,2,1.4,3.7,2.1,5.3c0.8,1.4,1.4,2.9,1.7,4.5
						c0.6,6.9,2.3,13.7,4.8,20.1c-1.1,1.5-2,3.2-2.7,5c-0.2,1.8-0.2,3.7,0,5.5l-4.1-1.3l-3.6,3.8c-2.6,0.6-5.3-1-6.4-3.7
						c-1.1-2.8-3.1-5.1-5.6-6.5c-1.1-0.7-2.1-1.6-2.9-2.7c-2.1-3-4.1-6.2-6.2-9.5c0-4,1.8-8.2,0-12c-1.2-2.8-1.2-6,0-8.8
						c0.2-1.2,0.2-2.5,0-3.7c-1.9-2.1-4.5-3.3-7.3-3.2h-10.6c-2.2,0-4.5-0.5-6.5-1.5c-5.1-3.1-10.4-5.6-16-7.3c-2-0.6-3.7-1.8-5-3.5
						c-3.8-5.1-9.2-8.5-15.1-9.6c-2.2-0.4-4.3-1.2-6.4-2.3c-3.8-1.8-8-1.8-11.8,0c-2.1,0-4.5,2.5-7.4,0c-1.3-7.2-3.6-14.1-6.8-20.5
						h-10.1c-0.9-1.5-2.6-3.2-2.6-4.8c-1.5-8.5-0.1-17.2,3.9-24.6c1-1.6,1.8-3.3,2.4-5.2c1.6-4,3.7-7.7,6.4-11
						c1.4-2,3.5-3.3,4.7-5.3c1.2-2,5.1-1.8,4.1-5.8c0.8-0.4,1.7-0.8,2.6-1c2.4,0,5,0,7.4-1.2c1.1-0.5,1.9-1.6,2.1-2.8
						c0-1.3-0.5-2.6-1.4-3.5c-1.2-1-2.9-1.3-3.9-2.3c-1.1-1,0-1.7-1.2-2.5c3.9,0,7.7,2.8,11.5,0l3.3-5.8l4.8,1
						c4.6,1,9.2-1.3,11.6-5.7c1.4-2.3,3.3-4.2,4.8-6.3c1.5-2.2,1.5-2.8,2.3-3.8l-2-3.5c2.9-4.3,8-6.5,9.5-12.3
						c-1.1-0.7-2.2-1.5-3.2-2.3c-0.5-0.8-0.9-1.7-0.9-2.7c0,0,1.1-1.2,1.7-1.2h8.6c2.9,6,7.7,3.5,12.1,3.2l-3-7l7.3,5.7
						c4.2-2.3,8.3-4.9,12.1-8c3-1.7,4.9-5.1,4.7-8.8c-3.8-4.2-8.6-8-9.2-15l8.5-3c0,0,0-1.3,0.9-2l-3.5-3l1.4-1.5
						c0.4-0.6,0.8-1.2,1.2-1.8c-7.7-2.8-7.7-2.8-10.7-8.3l-11.3-2.2c-3.4-0.9-7-0.5-10.1,1.2c-2.6,5.3,0,8.2,3.6,10.8
						c0,4.7-4.2,4.5-6.5,6.3c-0.3,2.3-0.8,4.5-1.5,6.7c-0.8,1.7-1.7,3.3-2.9,4.7c0,0-0.9,0-1.4,0l-2.9-4.8c-2,2.5-2,4.7,0,6.3
						c1.8,1.3,2.5,4,1.5,6.2l-5.6,3.8c-2.2-1.8-4.4-3.8-6.4-6c-1.5-1.5-2.6-3.3-3.3-5.3c0-2.5-1.5-5.7,2.4-6.5c0,0,0.9-1.2,0.9-2
						c0.2-2.8-0.8-5.6-2.9-7.3l-7.1-5.3c-2.4,1-4.1,3.2-4.5,6c0,3.2,0,6.8-3.8,8.7c-1.9,0-3.5-1.7-3.5-3.8c0-0.1,0-0.1,0-0.2
						c0.5-4.1-0.9-8.2-3.6-11l2-3.7c-2.4,0-4.8-2.3-6.5-1.7c-1.7,0.7-5.7,0-8.3-2.3c-2.6-2.3,0-0.8,0-1.8l3.3-2.7l-1.7-3.8h5
						l-10.3-11c0.1-1.5,0.1-3,0-4.5c-0.2-1.3-0.7-2.6-1.4-3.7c-3-2.8-5.1-7-9.8-7c-1.2,0-2.1-1.1-2.1-2.4c0-0.8,0.4-1.5,1-2
						c2.7-2.3,5-5,7-8.2l-3-5.3c2.9-1.2,6.2-1.2,9.1,0c3.7,1.5,7.8-0.2,9.7-4c3-4.3,6.5-8.5,9.5-12.8c0,0,0-1.5,0-2.7
						c-3.3-1.5-6.8-2.1-10.3-1.8c-1.9,0.7-4,0.7-5.9,0c-6.7-2.6-14-2.6-20.7,0c-1,0.5-1.9,1.1-2.7,1.8l2.3,4H951c0,4.8,0,9.1,0,13.6
						c0.2,1.4,0.6,2.7,1.4,3.8c4.4,8.7,4.2,12.1-1.2,19.1v4.7c-6.2,0-6.4,0-7.7,5.3c-0.1,1-0.1,2,0,3l3,4.2l-3,5.8
						c1.3,3.8,4,6.7,7.4,8c2.6,0.9,5.2,1.6,7.9,2.2c2.7,0,5.3,2.8,8.3,2.5c0.9,0.3,1.4,1.3,1.1,2.3c-0.2,0.6-0.6,1-1.1,1.2
						c-1.2,0.1-2.3,0.1-3.5,0l-3,6.5c2.9,2.3,3.5-3.3,6.4-1.5l0.9,5.7c-4.8,3.8-8.2,10-15.1,9.1c-1.5,2-2.1,3.7-1.1,5.7
						c1.4,2.1,1.7,4.9,0.8,7.3l-5.1-1.3c-2.2-0.4-3.7-2.7-3.4-5.2c0-0.1,0-0.1,0-0.2c0-2.5,1.4-5.2,2.1-8.2c-5.7,0-8.9-4.5-12.9-7.3
						l10.9,1.2l6.2-4.8c-2.7-3.6-5.6-6.9-8.8-10c-3.5-2.7-7.3-5.1-11.2-7.2c-1.2,1.7-2.9,3-3.3,4.7c-0.8,4.2-4,7.4-7.9,7.8
						c0,0,0,0,0,1.3c0,1.3,0,0,0,0h1.2c4.9,0.5,9.5,2.5,13.3,5.8c-1.6,2.6-4.2,4.2-7.1,4.3l-0.9,8.2c-2.1,1-4.5,1-6.7,0
						c-4.1-1.5-8.6-1.5-12.7,0c-6.4,1.9-13.2,0.9-18.9-2.7c-1.9-1.4-4.2-2-6.5-1.7c-4.7,1.3-7.1-3.5-10.9-4.8c-1.2,0-2.1-2.8-3-4.5
						c-0.9-1.7-3.8-5.3-7.9-4c-4.5,1.7-9.1,3-13.8,4c-2,0-3.8,1.5-3.8,4.5c0,3,4.1,3.7,6.2,0c0.4-0.1,0.9-0.1,1.4,0
						c4.2,0.6,8.5-0.6,11.9-3.5c0.9,0,3-1.7,3.8,0.8c0.8,2.5-3.3,2.2-4.7,3.7c-2.3,2.6-5.5,4.1-8.8,4.2c-2.3,0-4.2,1.9-4.4,4.3
						c0.9,2.3,1.8,4.2,2.6,6.2c0.8,2,1.7,4.5,2.6,6.7l-5,3c-3.9-1.8-1.2-5.2-1.4-7.3c-2.6-3.5-7.3-2.2-8.8-6.5l-9.4-4.5
						c-13.9,4.9-28.8,5.3-43,1.2c-0.5-3.2,1.4-6.2,4.3-6.8c0.1,0,0.3,0,0.4-0.1c1.7,0,3.6,0.8,4.7-1.3c1.1-2.2,0,0,0,0
						c-3.5-5.5-9.6-8.2-15.6-6.8c-6.7,1.3-13.5,0-19.5-3.5c-3.1-1.8-6.6-2.9-10.1-3.2c-3.3-0.3-6.5-1.6-9.2-3.7
						c-5.7-4.1-12.6-5.6-19.2-4.2c-4.4,7.2-4.4,7.2-12.4,6c0.6-3.5-0.1-7.2-2-10.1c-2.6,2.8-5.9,4.2-5.3,8.8c0,0-1.4,2-2,1.8
						c-2-0.2-3.9-0.7-5.7-1.5c-2.9-1.8-5.1-4.6-6.4-8c-1.6-3.8-4.4-6.9-7.9-8.7c0,0-0.9,0-1.4,0l1.4,3.3c-1.7,1.8-3,3.8-4.7,5.3
						c-1.9,2.2-4.7,3.2-7.4,2.7c-3.6-0.8-7.3,0.5-9.8,3.3c-1.3,1.7-3.3,2.6-5.3,2.5c-2.8,0-5.5,0.9-7.9,2.5c0,0-1.4,0-2,0
						c0-4.2,3.3-4.8,6-5.3c3,0,6-1,8.5-2.8c2.2-2,4.7-3.6,7.4-4.8c-1.5-0.2-3-0.2-4.5,0c-2.7-0.8-5.7,0-7.7,2.2c0,0-1.8,0-2.7,1
						c-4.2,1.1-8.1,2.9-11.8,5.3c-2.3,2-5.1,3.1-8,3.2c-2-1.3-3.5-3.3-4.2-3c-4.2,2.2-9.4,2.2-13,6.5l4.1,6.8c-2.6-1.1-5.3-2-8-2.5
						c-7.6-0.6-14.9-3.4-21.2-8.2c-3.4-2.4-7.3-3.7-11.3-3.8c-7.3,0.1-14.5-2.2-20.7-6.5c-2.4-1.6-5.2-2.2-8-1.8
						c-2,0.2-4.1,0.6-6.1,1.2c-3.9,1.1-8.1,0.8-11.8-0.8c-2.6-1.2-5.4-1.7-8.2-1.5c-3.5,0.3-7-0.2-10.3-1.5l-10.1-3.3
						c-2.7-0.6-5.6-0.6-8.3,0c-3.4,0.8-6.9,1.1-10.4,1c-3.4,0.2-6.6-1.4-8.6-4.3c-1.2-2.5-3.5-3.9-6.1-3.7c-2.5-0.4-5-0.4-7.4,0
						c-2.4,1.1-5.1,0.3-6.7-2c0,0-1.7-1.2-2-1.5c-3.5,0-4.2,6-8.3,2.7l2.1-4.5l-8-2.3c-1.3,0.9-2.6,1.9-3.8,3
						c-3.3,3.5-7.8,5.5-12.4,5.3c-1.3,0.1-2.5,0.1-3.8,0c-3.8-0.4-7.6,1-10.4,3.8c-4.8,3.8-10.3,6.2-16.2,7
						c-1.8,3.2-5.3,4.8-6.7,8.8c-2.1,7.2-8.3,12-15.1,11.6h-9.1c-0.7,0.2-1.4,0.5-2.1,0.8l-1.2,6.8c1.7,2.3,4,4,6.7,4.8
						c6.6,2.2,12.1,7.3,15.1,14.1c5,1.3,10,2,15.1,2.2c1.1,2.7-0.9,6.8,3.6,7c1.2-0.8,2.5-1.4,3.9-1.7c3.3,0,5.6,1.7,5,3.2
						c-0.6,1.5-3.3,1.7-5.1,1.8c-1.1,2-3.3,1.3-4.4,2.5c-2.3,2.2-5.3,3.1-8.3,2.5h-4.5c-6.8,0-6.8,0-8.2-7.5c-0.9,0-2,0-2.7,0
						c-4.2,0.8-8.2,2.5-11.8,5.2c-1,0.7-2.1,1.2-3.3,1.3c-1.5,0.3-3,0.8-4.4,1.3c-2.4,1.2-4.8,2.7-7.3,4.2c-1,0.6-2,1.3-2.9,2.2
						c3,4.2,7.4,2.8,10.9,5c-0.5,3.5,0.5,7.1,2.7,9.6c3.8,2.3,8.2,2.9,12.4,1.8c5.8-1.7,11.8-1.7,17.5,0c3.2-3.4,7.4-5.5,11.8-6
						c0.9,0,2.4,0,3.2,1.5c0.8,1.5,0,2.5,0,3.5c-0.3,0.6-0.6,1.3-0.9,2c0.7,1.9,1.3,3.8,1.8,5.8c1.1,3-0.2,6.4-2.9,7.6
						c-0.4,0.2-0.9,0.3-1.3,0.4c-1.7,0-3.5,0-5.3,0c-1.5,0-2.9,0.6-4.1,1.7c-3.4,4.4-9.3,5.1-13.5,1.7c0,0,0,0-1.2,0
						c-2.4,1.4-4.1,3.9-4.5,6.8c-0.2,1.1-0.7,2-1.5,2.7c-4.1,3.1-7.1,7.8-8.3,13.1c1.2,3,2,6.5,5.9,6.7c0,0,1.7,1,2.4,1.8
						c1.4,1.6,3.5,2.2,5.4,1.5c1-0.1,2-0.1,3,0c1,0.2,1.9,0.7,2.7,1.3c0.2,0.6,0.2,1.4,0,2c-0.3,0.7-0.9,1.2-1.7,1.2
						c-2.3,0-4.4-1.3-6.5-2c-1.5-0.6-3.2-0.1-4.1,1.3c-0.7,1.6-0.2,3.5,1.1,4.5l8.2,7.3c2.3,0.6,4.7,0.9,7.1,0.8
						c2.3-1.2,4.5-2.6,6.5-4.3c2,2.9,3.5,6.2,4.5,9.6c-2.1,4.2,0,7.8,0,12.1l8.5-4.3c0.9-0.4,1.9-0.4,2.9,0c3.5,2,8.2,0.8,10.4,5.7
						h1.2l2.3-5l4.1,3.2c3.6,0,6.2-3,10-1.2c-4.8,4.8-4.2,11.3-5.6,16.6c-3.2,2.7-6.8,4.2-8.3,8.5c0,0-1.5,1.2-2.4,1.7l-4.8,2.3
						c-3.6,1.7-6.8,3.5-7.9,8.2c-0.4,1.5-1.9,2.3-3.2,1.8c-0.1,0-0.3-0.1-0.4-0.2c0,0-1.4,0-2.1-1c-3.3-0.3-6.6,0.9-9.1,3.3
						c-1.8,1.7-2.6,4.3-2,6.8c1.2-0.1,2.4-0.5,3.5-1c1.9-1.2,3.7-2.6,5.4-4.2c1.7,1.4,3.9,1.8,5.9,1c4.7-2.7,9.9-4.6,15.1-5.7
						c1.8-0.3,3.3-1.5,4.2-3.2c1.7-3.1,4.3-5.5,7.4-6.7c4.2-2.5,9.7-3.7,11.6-9.6c0,0,0.8,0,1.1-1c3.8-2.7,7.7-5.2,11.8-7.3
						c4.8-2,6.7-7.5,10.9-9.8c0,0,0-1,0-2l-5.6-3.2c2.3-5.2,2.6-5.7,6.4-7.7c2.7-1.4,4.9-3.6,6.4-6.5c2.8-5.9,7.3-10.7,12.7-13.6
						c1.9-1.3,4.1-2.1,6.4-2.2c2.8,0.7,5.3,2.7,6.7,5.5c-2.4-0.3-4.8-0.3-7.3,0c-1.8,0.6-3.5,1.3-5.1,2.3l-5.3,11.1
						c-0.1,0.8-0.1,1.7,0,2.5l3.9,1.8c0,3.3-4.4,1.8-4.2,5.5c2.3,0.3,4.6-0.1,6.7-1.3c3-2,6.1-3.8,8.9-6.2c2.1-1.9,4.7-2.8,7.4-2.7
						c2.9,0.3,5.5-2.1,5.7-5.3c0.1-1.1-0.1-2.2-0.6-3.2c0,0,0,0-0.8-1.3c-1.1-3.3,0-4.7,3.6-4.2c3.1,0.8,6.3,0.2,9.1-1.5
						c3.3,2,6.4,4.3,9.2,7c1.9,2.1,4.9,2.6,7.3,1.2c2.5,4.1,6.8,6.3,11.2,5.8h8.2c2.5,0.3,5.1,0.8,7.6,1.5c3.5-3.2,3.9,2.7,6.5,2.8
						c2.6,0.2,3.9,0,5.9,0c2,0,2.9-1,4.4-1.3c1.5-0.3,0.9,0,1.7,0v4.8c0.8,0.6,1.7,1.1,2.6,1.5c5,1.9,9.5,5.1,13,9.5
						c1.3,1.3,2.9,2.3,4.5,3c2.1,1.3,4.7,1.3,6.8,0c0-3-3.9-3.5-4.1-6.8c3.4,0.5,6.4,2.4,8.5,5.3c1.1,2,1.4,1.7,5.1,2
						c0-1.8-1.1-3.7-1.5-5.7c-0.1-1.3-0.1-2.6,0-3.8l1.2,1c3,4.2,3.9,10.5,9.8,11.5c0,0,0,0,0.9,1.3c2.2,2.3,3.8,5.3,4.5,8.5
						c0.4,2.4,1.7,4.6,3.6,5.8c0,0,0,1.3,0.8,2c0.8,0.4,1.6,0.8,2.4,1.3c2.9,3,2.7,4-0.9,7.2c1.4,1.8,3.6,2.7,5.7,2.5v4.5l3.9-3.5
						v7.2l5.9,1.3l1.1,5.3l5.7,1.8c-1.7,1.1-2.3,3.5-1.3,5.5c0,0.1,0.1,0.1,0.1,0.2c0.8,1.7,2.1,3.2,1.2,5.3c-0.1,0.7-0.1,1.5,0,2.2
						l4.2,4.5l4.5-1.2c0,3.3,0,6,0,8.7c1.3,0.6,2.6,1.1,3.9,1.5c2.8,0.7,5,3,5.7,6c-0.1,1.1-0.1,2.2,0,3.3c1.5,3.7,3.2,7.2,5,10.8
						h1.1h5.1l5,6c-3.7,0.4-7.4-0.2-10.7-1.8c-1.9-0.9-3.8-1.7-5.7-2.3c-1.1,0-2.6,0-2.9,1.5c2.6,3.4,5.7,6.3,9.1,8.7
						c4.5,5,10,8.9,16,11.5c0,0,1.1,1.2,1.5,1.7c3.2,3.6,7.8,5.4,12.4,4.8c0.1-1.2,0.1-2.4,0-3.7c-1.3-3-3.6-5.4-6.5-6.7
						c-4.7-2.1-7.6-7.4-7.1-13h3h1.2c0,4.3,4.2,4.8,6.2,7.5c2,2.7,3.8,2.2,6.5,2.3c0.8,5,6.2,6.7,6.8,12.3c0.6,5.7,2.4,10.1-2,15.1
						c0.2-3.7-0.8-7.3-2.7-10.3l-6.7,1.7l-6.7-1.3c-0.1,1.1-0.1,2.1,0,3.2c1.2,3.3,2.9,6.5,3.9,9.8c1.1,3.6,1.9,7.3,2.4,11
						c0,2.7-0.2,5.5-0.8,8.2c-0.5,7.4-1.5,14.8-2.9,22.1c-1.9,5.8-1.9,12.1,0,17.8c1.2,4,1.2,8.3,0,12.3c0,1.5-0.8,3.2-1.1,4.8
						c1.3,2,2.5,4.1,3.6,6.3c0.8,2.3,0.8,5,1.5,7.3c0.4,1.6,1.2,3.1,2.1,4.3c0.9,1.5,2.7,2.7,3.3,4.3c0.6,1.7,3.3,3.7,5.6,4.3
						c0,0.6,0,1.2,0,1.8c-1.4,3.1-0.3,6.9,2.6,8.5c0,0,0,0,0,0c0.8,0,1.7,1.8,1.5,2.5c-1.1,3.7,1.2,5.7,2.9,8
						c1.7,2.3,7.7,8.2,8.2,14.8c5,0.8,9.9,2.6,14.4,5.2c3.4,1.7,6.7,3.9,9.7,6.3c1.7,1.7,3,3.8,3.8,6.2c2.6,6.5,5.6,13,8.3,19.5
						c1.4,2.6,2.6,5.3,3.6,8.2c0.7,2.7,2.3,5,4.4,6.5c2.4,1.9,4.7,4,7,6.2c3.5,2.6,4.5,7.9,2.1,11.8c0,0,0,0,0,0c-1.5,0-3.2-1-4.4,0
						c1.8,4.1,5.2,7,9.2,8c3.3,1.4,6.3,3.3,9.1,5.7c3.2,1.9,4.9,5.9,4.2,9.8v4.2c2.6,2.2,5,4.2,7.3,6.3c2.3,2.2,8.2,5.8,10.1,11
						c0,0,0.8,0,1.7,0l3-3.3c-1.5-2.4-3.1-4.7-4.8-6.8c-1.4-1-2.9-1.7-4.5-2c-2.9-7.5-5.3-14.1-7.7-20.6c-0.5-1-1.1-1.8-1.8-2.7
						c-4.1-4.1-7.5-8.9-10.1-14.3c-0.2-0.5-0.5-1-0.9-1.3c-3-4.7-6.5-9.1-10.4-13c-1.5-1.5-2.6-3.4-3.3-5.5
						c-0.7-2.9-1.3-5.8-1.7-8.8c-0.7-2.2,0.1-4.6,1.8-5.8c4.9,0.4,9.6,2.5,13.3,6c0.7,5.1,2.4,10,5,14.3c1.3,2.3,1.7,5.1,1.2,7.8
						c1.2,0,2.6,0,3.3,1.3c3.3,3.2,5.6,8,10.4,9.3c0,0,1.2,1.2,1.2,1.8c0.4,2.8,2,5.1,4.4,6.2c2.4,1.9,4.7,4,6.8,6.3v6.6
						c5.1,3.1,9.6,7.1,13.5,12c4.5,6.7,10.3,12.2,15.1,18.3c0.8,1,1.5,2.2,1.8,3.5c1.2,3.3,2.3,6.7,3.6,10.6c1.4,4,0,4.7-1.2,6.5
						c-1.2,1.8,0,5.7,0.9,8.2c1.6,2.6,3.8,4.6,6.4,5.8c2.1,0.8,4.1,2.1,5.7,3.7c3.8,3.7,8.7,5.8,13.8,6c1.7,0.3,3.3,1.1,4.7,2.2
						c6.3,5.1,13.5,8.7,21.2,10.5c1.3,0.3,2.5,0.8,3.6,1.5c4.8,2.7,9.9,4.9,15.1,6.5c2.8,1.2,5.9,1.2,8.6,0l4.8-2.3
						c4.3-2.8,9.8-2.2,13.5,1.5c3.8,3.2,7.3,6.8,10.9,10.3c2.9,3.9,6.8,6.7,11.2,8c4.3,0.6,8.4,1.9,12.3,4c2.6,1.1,5.2,1.9,7.9,2.7
						c2.4,0.8,5,0.8,7.4,0c1.1-0.1,2.1-0.1,3.2,0c2,2.3,0.8,5.3,2.9,7.3c2.1,2,5.9,6.7,9.1,10c2.6,2.2,3.9,5.9,3.2,9.5
						c0,4,1.4,5.7,4.7,6.2l1.7-3.3c2.6,3.7,6,6.8,9.8,8.8c0.8,0,1.2,1.8,1.8,2.7c0.6,0.8-1.1,3.5,2,3.2c3-0.3,3.2,2.3,4.5,2.2
						c6.7-1,10.9,4.2,15.1,7.7c4.2,3.5,3.2,3,6.2,0l-2-4.8l6.5-6.5c1.9-2,4.9-2,6.8,0c0.9,0.5,1.7,1.1,2.4,1.8
						c0.1-2,0.5-3.9,1.1-5.8c-1.7-0.7-3.4-1.2-5.1-1.5c-2.2-0.6-4.6-0.2-6.5,1.2c-2.6,1.6-5.3,3-8,4.3c-2.1,1.1-4.5,1.1-6.7,0
						c-2.4-1-5.4,0-7-4.2c-1.5-4.2-2.4-2.7-3.6-4c-3.2-3.3-5.7-7.2-7.6-11.5c-0.9-1.6-1.2-3.6-0.9-5.5c1.5-8.5,1.7-16.6,3.8-25.5
						c0.8-3,0.8-6.2,0-9.2c-2.1,0-4.5-1-5.9-3.3c-1.4-2.3-4.7-3-7.4-3.5c-2.4-0.6-5-0.6-7.4,0c-6.5,1-13,1.5-19.5,1.3
						c-2.1,0-4.2-0.5-6.2-1.3l2.4-4c0.9-1.5,2.6-3.2,2.7-4.8c0.6-4.9,0.6-9.8,0-14.6c-0.2-1-0.2-2,0-3h3.6c0.7-1.7,1.1-3.6,1.4-5.5
						c-0.2-5.6,1.6-11.1,5-15.3c2.9-3.8,2-5.7-3-6.5c-2.8-0.3-5.6-0.3-8.3,0c-3.5,0.6-6.9,1.5-10.3,2.7c-5.4,1.5-6,2.2-6.7,8.3
						c-0.3,3.9-1.5,7.6-3.5,10.8c-1.9,2.7-3.9,5.3-6.1,7.8c-4.1-2.1-8.8-2.1-12.9,0c-3.7,1.1-7.4,1.9-11.2,2.5
						c-2.5-1.7-5.1-3.2-7.9-4.3c-3.9-1.1-7.2-4.2-8.8-8.3c-1.5-3-3.2-5.8-4.8-8.5c-5.7-7.9-8.2-18.1-6.8-28.1
						c0.2-3.6,0.2-7.2,0-10.8c0-2.2,0-4.5,0-6.7c0.2-1.6,0.8-3.1,1.8-4.3c2.6-2,3.2-6,1.4-8.8c0,0,0,0,0,0c-1.2-2.8-1.7-5.9-1.4-9
						c1.1-7.4,6.2-13.4,12.9-15.1c3.6-0.7,6.6-3.2,8.3-6.7c0-1.2,0-2.3,1.2-3.7c1.8,1.4,4.2,1.4,6.1,0c2.8-2.1,6.3-2.5,9.4-1.2
						c3.1,1.7,6.8,1.7,10,0l4.8,3.3c3.9,3.4,9.6,3,13-1c0,0,0-1.5,0-2c0-0.5-4.7,0-5.1-4.5c4.5,0,8.9-1.2,13.3-2
						c1.7-0.2,3.4-0.6,5.1-1c0,0,1.7,0,2,0s3.3,1.5,5.4,1.2c5.8-1.4,11.8,0.5,16,5c0.8,0.8,1.7,1.4,2.7,1.8l5.4-2.8
						c1.2-1.1,3-1.1,4.2,0c3.5,3.7,6.7,7.3,10,11.3c0.4,1,0.4,2.2,0,3.2c-0.9,4.3,1.5,8.2,1.5,12.3c0,1.2,0.9,2.5,1.5,3.5
						c0.6,1,2.1,2,2.4,3.2c1.4,5.7,5.9,8.8,8.6,13.3c2.7,4.5,4.1,1.7,5.1-1.2c2.4-5.9,2.4-12.7,0-18.6c-2-6.9-4.3-13.6-7-20.1
						c-4.5-9-3.9-20,1.5-28.3c1.1-2,2.1-3.8,4.2-4.3c3-0.9,5.7-2.7,7.7-5.3c2.9-4.8,7.3-8.4,12.4-10c3-3.7,6.8-6.4,11-8v-4.8
						c4.4-1.8,4.4-1.8,6-4.8l-4.5-2.5c2.1-1.5,3.8-2.8,3.8-6c0-3.2-2.7-2.8-3.8-5v-12c0-3.2,0-6.5,0-9.6c0-3.2,0-2.8,2.9-2
						c0.1,1.5,0.1,3,0,4.5c-0.2,3.9,1.6,7.6,4.5,9.6c3.9-5.5,3.9-5.5,1.8-11v-1.7c0-0.6,0-1.2,0-1.8h4.5c4.3-3.2,6.6-8.8,6.1-14.5
						l3.3-3.3c1.7-4.8,5.7-5.3,9.4-5.5c5.2-0.8,10.2-2.3,15.1-4.3c0,0,0,0,1.4-1.5l0.2-6.2c0-1.7,0-3,0-4.3
						c0.9-6.1,4.8-11.2,10.1-13.1c2.6-1.4,5.1-3.3,7.3-5.5c5.4,0,12.1,0,15.1-7.8c5.3-0.2,10.5-1.8,15.1-4.5c1.5-0.9,3.3-0.9,4.8,0
						c1.5,2.5,4.7,0,7,3c-1.2,0.8-2,2-2.7,2c-5.3-0.1-10.4,2.3-13.9,6.7c-1.7,1.3-2.7,3.5-2.6,5.8c0,3,2.1,4,4.4,5
						c1.8-0.7,3.6-1.6,5.1-2.8c2.6-2.3,4.5-5.2,6.8-7.7c6.6-1.3,13.1-3.5,19.2-6.7c1.8-0.9,3.3-2.4,4.4-4.2c1.6-3.4,3.9-6.2,6.8-8.3
						v-3.2c0-1.5,1.2-3.5-0.8-4.2c-2-0.7-2.6,1.5-3.3,2.7c-0.8,1.2-3.6,7.2-5.6,11h-6.4c-3.5-0.3-6.9-1-10.3-2
						c-2.8-1.1-5.4-2.8-7.6-5.2c-1.6-2.4-2.9-5-3.9-7.8c-0.4-0.8-0.9-1.5-1.5-2.2c0-2.5,2.6-4.2,1.4-6.5c-5.4,0-5.4,0-10-4.7
						c1.2,0,2.3-1,2.9,0c3.1,1.5,6.7,0.7,9.1-2l3.5-2.8c0.5-3.4-1.6-6.5-4.6-7.1c-0.2,0-0.5-0.1-0.7-0.1c-4.4-1.3-9.1-1.3-13.5,0
						c-5.4,2.2-10.7,4.7-16,7.3c-3.9,1.9-7.3,5-9.8,8.8c-1.9,2.6-4,5-6.2,7.3c0,0-1.7,2-3.2,1.2c-1.5-0.8,0-1.2,0-1.5
						c0.5-1.3,1.2-2.5,2.1-3.5c2.9-2.6,5.4-5.8,7.3-9.3c4-7.5,10.8-12.6,18.6-14c0.6-0.6,1.1-1.4,1.5-2.2c1.6-5.5,6.4-9.1,11.6-8.7
						c9.8-0.6,19.7-0.6,29.5,0c5,0.3,10.1,0.3,15.1,0c3.2-0.1,6.3-1.5,8.8-3.8c1.6-1.4,3.2-2.8,4.7-4.3
						C1260.2,1308.7,1263.2,1306.9,1266.5,1306.4z M984.2,1140.1c-1.4,0.9-3.1,1.3-4.7,1c1.5-2,3.2-1.2,4.7-0.5V1140.1z
						 M763.9,1104.2c-1.3,2.1-2.5,4.3-3.5,6.7c-1.7,0.8-3.6,0.8-5.3,0c-3.8-1.7-3.8-1.5-7.7,1l0.9,3.8c-4,4.1-9,6.9-14.4,8.2
						c0-2.7,1.7-2.5,2.6-3.7c0.9-1.2,2.7-2.3,3.9-3.8c0.4-0.7,0.4-1.5,0-2.2c-0.4-0.7-1.2-1.1-2-1c-2.8,0.4-5.2,2.2-6.5,5
						c-0.9,3.1-3.9,4.7-6.7,3.7c0,0-0.1,0-0.1,0c-2.6,0-5.4,0-8.2-2.3c1.4-1.5,3.5-2.5,3.9-4.2c0.5-1.7,2.9-2.8,4.2-5l-0.9-4.2h7.1
						c0.9-2.3,0-2.8-1.5-3.3c-2.8-1.4-6.1-1.4-8.9,0c-1.8,0.8-3.8,1.2-5.7,1.2c-3.9,0-8-1-11.5,2.7l-1.8-3.5c0,0,0.8-1.3,1.2-1.3
						l19.8-5l10.1-3.3c3.8-1.3,7.7-2.5,11.5-3.5c2.2-0.8,4.6,0.3,5.6,2.7l-6.5,5.3c3.2,3.5,7,1.5,10.1,2.2c3.2,0.7,6.2-3.3,9.5-4.3
						c2.2,1.6,2.8,4.9,1.3,7.4C764.4,1103.6,764.1,1103.9,763.9,1104.2z M832.5,1155.4c-2.7,3.2-6.3,5.2-10.3,5.7
						c-1.7,0.4-3.3,1.3-4.5,2.7c-2.4,2.3-4.5,5.2-7.1,7.3c-1.7,1.7-3.8,2.7-6,2.8c-3.9,0-5.1,2.3-6.4,5.7c-4.7,1-8.6,2.2-12.7,2.7
						c-2.5,0.3-4.9,0.3-7.4,0c-2-0.5-3.6-2.3-4.1-4.5c1.1-2.5,3.2,0,5.3-1.7c1-2,2.3-3.7,3.8-5.2c1.9-1.2,4-2,6.2-2.5
						c-2-5-6-7.5-9.5-11.6c1.4,0,2.3,0,2.7,0c5,3,10.9,4,15.1,7.3c4,3.2,9.5,3.2,13.5,0c1.9-1.4,3.6-3.1,5-5
						c3.3-4.8,8.8-6.9,14.1-5.5c2.4,0,5.1,0,7,2.7C835.6,1155.9,835.6,1155.9,832.5,1155.4z M937.5,1303.3c-1.1-3.5-2.7-5.7-6-4
						c-4.8-4.9-8.5-11-10.7-17.8l1.5-5.5c2.1-1.4,4.7-1.4,6.8,0c2.1,0.9,3.8,2.7,4.7,5c1.8,4.5,3.3,9.1,5.1,13.6
						c1.8,4.5,2.6,5.3,3.8,8L937.5,1303.3z M1011.6,1359.3l2.1-5.3c-1.1,0.4-2.1,1-3,1.7c-3.9,3.1-8.3,5.4-12.9,7
						c-4.2,1.5-4.4,1.5-8.6-2l-7.9,1.3c0-1.3,0-2.3,0.9-2.7c4.4-4.7,9.5-8.5,15.1-11.1c2.5-0.7,4.6-2.5,5.9-5c0.7-1.1,1.7-2,2.7-2.7
						l7.1-5l11.5,1.8c1.8,0,3.8,0,4.2,2.8c1.4,6.3,5.7,7.2,10.7,7.3c1.4,4.3,2.7,8.3,3.9,12.5c0.4,1.2,0.4,2.6,0,3.8
						c-0.9,1-2.4,1-3.3,0c-3.5-1.7-7.4-1.7-10.9,0c-1.9,0.5-3.9,0.8-5.9,0.8c-1.2,0.1-2.5-0.3-3.5-1.2
						C1017.7,1361,1014.8,1359.6,1011.6,1359.3z M1050,1396.6c-1.7-1.5,0-3,0-4.2c3.9-3.7,3.2-8.3,2-13.8l-10.4-5.8l-3.8,5.3
						c-1.4,2-2,5.2-5.3,4.8c-0.9,0-2.4,1.5-2.7,2.5c-2.4,5.1-2.9,11.1-1.4,16.6c1.9,5,1,10.8-2.4,14.8c-1,1.2-2.3,2.2-3.6,2.8
						c-1.7,1-3.8,0.4-4.7-1.4c-0.1-0.2-0.2-0.4-0.2-0.6c-0.7-2.3-1.2-4.7-1.4-7.2c-0.7-5.6-0.3-11.3,1.2-16.6c0.8-2.5,1.4-5.2,2.1-8
						h-4.5c2-4.3,4.4-8.3,7.3-12c0.3-0.5,0.7-0.8,1.2-1c5.7,0,10.9-4.7,16.9-3c2.1,0,6.8-1,6.7,0c-0.2,1,3.2-2.3,4.7-2.2
						c7.3,0.4,14.5,1.5,21.6,3.3c1.4,0.5,2.7,1.4,3.8,2.5c1.8,2.3,3.5,4.7,5.1,7.2c1.8,2.7,1.1,5-0.9,7.7l-8.8-3.2h-1.2
						c0,0.8,0,1.8,0,2.3c-2.2,3.4-3.4,7.5-3.3,11.6c0,3.2,0,3.5-5.9,5.8c-0.7-1.6-1.4-3.3-2-5c-1.7-6.3-1.8-6.5-6.7-3
						C1052.3,1396.6,1051.2,1397.6,1050,1396.6z M1062.4,1410.4c-1.8,0-2.6,1.5-3,1.3c-0.5-0.2,0-1-1.2-1.7s1.1-1,1.7-1
						L1062.4,1410.4z M1082.7,1413.9c-4.8,2.3-9.5,4.8-14.4,6.8c-4.2,2.2-9.1,1.8-13-1c0,0-1.4-1.8-1.2-2.5c0.2-0.7,1.2-1.7,2.1-2.2
						c0.9-0.5,1.5,0,2.1,0c2.9-0.8,5.7-2,8.3-3.7c2.5-2.3,5.7-3.5,8.9-3.2c1.4-0.1,2.9-0.4,4.2-1c3.7-1.2,7.7-1.4,11.5-0.8
						C1089.1,1409.8,1086.2,1412.3,1082.7,1413.9z M1113,1399.1c-2.2,1.7-4.9,2.6-7.6,2.5c-0.9,0-1.4,0-1.8,0
						c-4.6-1.7-9.5-1.7-14.1,0c-1,0.2-2,0.2-3,0c-0.9,0-1.4-1.8-0.9-2.8c1.4-2.4,3.5-4.1,6.1-4.8c2.9-0.9,5.9-1.5,8.9-1.8
						c3.2,0.3,6.5-0.2,9.5-1.5c1.7-0.8,3.6,0.1,4.4,1.9c0,0,0,0,0,0.1c1.1,2.4,0.1,5.3-2,6.4c0,0-0.1,0-0.1,0H1113z"/>
				</g>
			</g>
		</g>
		<text transform="matrix(1 0 0 1 1013.54 653)" class="st0 st1 st2">Canada</text>
		<path class="st3" d="M1107,678v614.4"/>
		<path class="st4" d="M1080,1329c0-14.9,12.5-27,28-27s28,12.1,28,27s-12.5,27-28,27S1080,1343.9,1080,1329z"/>
		<path class="st4" d="M1042,1471.5c0-15.2,12.3-27.5,27.5-27.5s27.5,12.3,27.5,27.5s-12.3,27.5-27.5,27.5S1042,1486.7,1042,1471.5z
			"/>
		<text transform="matrix(1 0 0 1 337.84 1697)" class="st0 st1 st2">tats-Unis</text>
		<path class="st3" d="M469,1623.9h1.2V1471h559.4"/>
	</g>
</g>
</svg>
